<?xml version="1.0" encoding="UTF-8" standalone="no" ?>
<!DOCTYPE svg PUBLIC "-//W3C//DTD SVG 1.1//EN" "http://www.w3.org/Graphics/SVG/1.1/DTD/svg11.dtd">
<svg xmlns="http://www.w3.org/2000/svg" xmlns:xlink="http://www.w3.org/1999/xlink" version="1.1" width="1080" height="1080" viewBox="0 0 1080 1080" xml:space="preserve">
<desc>Created with Fabric.js 5.2.4</desc>
<defs>
</defs>
<g transform="matrix(1 0 0 1 540 540)" id="fe3dbc71-6733-4522-b261-a47472aefcee"  >
<rect style="stroke: none; stroke-width: 1; stroke-dasharray: none; stroke-linecap: butt; stroke-dashoffset: 0; stroke-linejoin: miter; stroke-miterlimit: 4; fill: rgb(255,255,255); fill-rule: nonzero; opacity: 1; visibility: hidden;" vector-effect="non-scaling-stroke"  x="-540" y="-540" rx="0" ry="0" width="1080" height="1080" />
</g>
<g transform="matrix(1 0 0 1 540 540)" id="55359a82-eb96-4229-b2d7-bc9deb84be95"  >
</g>
<g transform="matrix(1.16 0 0 1.16 540 540)"  >
<g style=""   >
		<g transform="matrix(1 0 0 1 -240.48 10.38)" id="avatar-shapes"  >
<path style="stroke: rgb(204,243,129); stroke-width: 2; stroke-dasharray: none; stroke-linecap: butt; stroke-dashoffset: 0; stroke-linejoin: miter; stroke-miterlimit: 50; fill: none; fill-rule: nonzero; opacity: 1;" vector-effect="non-scaling-stroke"  transform=" translate(-227.02, -360.88)" d="M 165.648 352.811 L 165.648 352.811 L 180.99099999999999 368.947 L 180.99099999999999 368.947 L 196.33399999999997 352.811 L 196.33399999999997 352.811 L 211.67499999999998 368.947 L 211.67499999999998 368.947 L 227.01799999999997 352.811 L 227.01799999999997 352.811 L 242.36099999999996 368.947 L 242.36099999999996 368.947 L 257.70399999999995 352.811 L 257.70399999999995 352.811 L 273.04799999999994 368.947 L 273.04799999999994 368.947 L 288.393 352.811 L 288.393 352.811" stroke-linecap="round" />
</g>
		<g transform="matrix(1 0 0 1 -252.2 -252.78)" id="avatar-shapes"  >
<path style="stroke: none; stroke-width: 1; stroke-dasharray: none; stroke-linecap: butt; stroke-dashoffset: 0; stroke-linejoin: miter; stroke-miterlimit: 4; fill: rgb(204,243,129); fill-rule: nonzero; opacity: 1;" vector-effect="non-scaling-stroke"  transform=" translate(-215.3, -97.72)" d="M 112.476 1.58 C 112.476 2.4084271247461904 111.80442712474618 3.08 110.976 3.08 C 110.14757287525381 3.08 109.476 2.4084271247461904 109.476 1.58 C 109.476 0.7515728752538099 110.14757287525381 0.08000000000000007 110.976 0.08000000000000007 C 111.80442712474618 0.08000000000000007 112.476 0.7515728752538096 112.476 1.5799999999999996 z M 131.444 1.58 C 131.444 2.4084271247461904 130.77242712474617 3.08 129.944 3.08 C 129.1155728752538 3.08 128.444 2.4084271247461904 128.444 1.58 C 128.444 0.7515728752538099 129.1155728752538 0.08000000000000007 129.944 0.08000000000000007 C 130.77242712474617 0.08000000000000007 131.444 0.7515728752538096 131.444 1.5799999999999996 z M 150.412 1.58 C 150.412 2.408703267121107 149.7402032671211 3.0805000000000025 148.9115 3.0805000000000025 C 148.0827967328789 3.0805000000000025 147.411 2.408703267121107 147.411 1.58 C 147.411 0.7512967328788932 148.0827967328789 0.07949999999999768 148.9115 0.07949999999999768 C 149.7402032671211 0.07949999999999768 150.412 0.7512967328788929 150.412 1.5799999999999996 z M 169.38 1.58 C 169.38 2.408703267121107 168.7082032671211 3.0805000000000025 167.8795 3.0805000000000025 C 167.0507967328789 3.0805000000000025 166.379 2.408703267121107 166.379 1.58 C 166.379 0.7515728752538099 167.0505728752538 0.08000000000000007 167.879 0.08000000000000007 C 168.70742712474618 0.08000000000000007 169.379 0.7515728752538096 169.379 1.5799999999999996 z M 188.348 1.58 C 188.348 2.408703267121107 187.6762032671211 3.0805000000000025 186.84750000000003 3.0805000000000025 C 186.0187967328789 3.0805000000000025 185.347 2.408703267121107 185.347 1.58 C 185.347 0.7515728752538099 186.01857287525382 0.08000000000000007 186.847 0.08000000000000007 C 187.6754271247462 0.08000000000000007 188.347 0.7515728752538096 188.347 1.5799999999999996 z M 207.315 1.58 C 207.315 2.4084271247461904 206.64342712474618 3.08 205.815 3.08 C 204.9865728752538 3.08 204.315 2.4084271247461904 204.315 1.58 C 204.315 0.7515728752538099 204.9865728752538 0.08000000000000007 205.815 0.08000000000000007 C 206.64342712474618 0.08000000000000007 207.315 0.7515728752538096 207.315 1.5799999999999996 z M 226.283 1.58 C 226.283 2.4084271247461904 225.61142712474617 3.08 224.783 3.08 C 223.9545728752538 3.08 223.283 2.4084271247461904 223.283 1.58 C 223.283 0.7515728752538099 223.9545728752538 0.08000000000000007 224.783 0.08000000000000007 C 225.61142712474617 0.08000000000000007 226.283 0.7515728752538096 226.283 1.5799999999999996 z M 245.252 1.58 C 245.252 2.408703267121107 244.5802032671211 3.0805000000000025 243.75150000000002 3.0805000000000025 C 242.9227967328789 3.0805000000000025 242.251 2.408703267121107 242.251 1.58 C 242.251 0.7512967328788932 242.9227967328789 0.07949999999999768 243.75150000000002 0.07949999999999768 C 244.5802032671211 0.07949999999999768 245.252 0.7512967328788929 245.252 1.5799999999999996 z M 264.22 1.58 C 264.22 2.408703267121099 263.54820326712115 3.0804999999999882 262.71950000000004 3.0804999999999882 C 261.8907967328789 3.0804999999999882 261.21900000000005 2.408703267121099 261.21900000000005 1.58 C 261.21900000000005 0.7515728752538099 261.89057287525384 0.08000000000000007 262.71900000000005 0.08000000000000007 C 263.54742712474626 0.08000000000000007 264.21900000000005 0.7515728752538096 264.21900000000005 1.5799999999999996 z M 283.188 1.58 C 283.188 2.4089794094960237 282.515979409496 3.081000000000005 281.687 3.081000000000005 C 280.85802059050394 3.081000000000005 280.186 2.4089794094960237 280.186 1.58 C 280.186 0.7510205905039765 280.85802059050394 0.0789999999999953 281.687 0.0789999999999953 C 282.515979409496 0.0789999999999953 283.188 0.7510205905039762 283.188 1.5799999999999996 z M 302.155 1.58 C 302.155 2.4084271247461904 301.4834271247462 3.08 300.655 3.08 C 299.82657287525376 3.08 299.155 2.4084271247461904 299.155 1.58 C 299.155 0.7515728752538099 299.82657287525376 0.08000000000000007 300.655 0.08000000000000007 C 301.4834271247462 0.08000000000000007 302.155 0.7515728752538096 302.155 1.5799999999999996 z M 321.123 1.58 C 321.123 2.408703267121099 320.4512032671211 3.0804999999999882 319.6225 3.0804999999999882 C 318.7937967328789 3.0804999999999882 318.122 2.408703267121099 318.122 1.58 C 318.122 0.7512967328789012 318.7937967328789 0.07950000000001212 319.6225 0.07950000000001212 C 320.4512032671211 0.07950000000001212 321.123 0.7512967328789009 321.123 1.5799999999999996 z M 112.476 20.804 C 112.476 21.63242712474619 111.80442712474618 22.304 110.976 22.304 C 110.14757287525381 22.304 109.476 21.63242712474619 109.476 20.804 C 109.476 19.975572875253807 110.14757287525381 19.304 110.976 19.304 C 111.80442712474618 19.304 112.476 19.975572875253807 112.476 20.804 z M 131.444 20.804 C 131.44372385762506 21.63242712474619 130.77192712474618 22.303776142374915 129.9435 22.3035 C 129.1150728752538 22.30322385762508 128.44372385762506 21.63142712474619 128.444 20.802999999999997 C 128.444 19.974572875253806 129.1155728752538 19.302999999999997 129.944 19.302999999999997 C 130.77242712474617 19.302999999999997 131.444 19.974572875253806 131.444 20.802999999999997 z M 150.412 20.804 C 150.41172385762508 21.632703267121105 149.73970326712112 22.304276142374917 148.911 22.304000000000002 C 148.0822967328789 22.303723857625084 147.41072385762507 21.631703267121104 147.411 20.802999999999997 C 147.411 19.97429673287889 148.0827967328789 19.302499999999995 148.9115 19.302499999999995 C 149.7402032671211 19.302499999999995 150.412 19.97429673287889 150.412 20.802999999999997 z M 169.38 20.804 C 169.37972385762507 21.632703267121105 168.7077032671211 22.304276142374917 167.879 22.304000000000002 C 167.05029673287888 22.303723857625084 166.37872385762506 21.631703267121104 166.379 20.802999999999997 C 166.379 19.974572875253806 167.0505728752538 19.302999999999997 167.879 19.302999999999997 C 168.70742712474618 19.302999999999997 169.379 19.974572875253806 169.379 20.802999999999997 z M 188.348 20.804 C 188.34772385762508 21.632703267121105 187.67570326712112 22.304276142374917 186.847 22.304000000000002 C 186.0182967328789 22.303723857625084 185.34672385762508 21.631703267121104 185.347 20.802999999999997 C 185.347 19.974572875253806 186.01857287525382 19.302999999999997 186.847 19.302999999999997 C 187.6754271247462 19.302999999999997 188.347 19.974572875253806 188.347 20.802999999999997 z M 207.315 20.804 C 207.315 21.63242712474619 206.64342712474618 22.304 205.815 22.304 C 204.9865728752538 22.304 204.315 21.63242712474619 204.315 20.804 C 204.315 19.975572875253807 204.9865728752538 19.304 205.815 19.304 C 206.64342712474618 19.304 207.315 19.975572875253807 207.315 20.804 z M 226.283 20.804 C 226.283 21.63242712474619 225.61142712474617 22.304 224.783 22.304 C 223.9545728752538 22.304 223.283 21.63242712474619 223.283 20.804 C 223.283 19.975572875253807 223.9545728752538 19.304 224.783 19.304 C 225.61142712474617 19.304 226.283 19.975572875253807 226.283 20.804 z M 245.252 20.804 C 245.25172385762508 21.632703267121105 244.57970326712112 22.304276142374917 243.751 22.304000000000002 C 242.9222967328789 22.303723857625084 242.25072385762508 21.631703267121104 242.251 20.802999999999997 C 242.251 19.97429673287889 242.9227967328789 19.302499999999995 243.75150000000002 19.302499999999995 C 244.5802032671211 19.302499999999995 245.252 19.97429673287889 245.252 20.802999999999997 z M 264.22 20.804 C 264.2197238576251 21.632703267121098 263.54770326712116 22.304276142374903 262.71900000000005 22.303999999999988 C 261.89029673287894 22.30372385762507 261.21872385762515 21.631703267121097 261.21900000000005 20.802999999999997 C 261.21900000000005 19.974572875253806 261.89057287525384 19.302999999999997 262.71900000000005 19.302999999999997 C 263.54742712474626 19.302999999999997 264.21900000000005 19.974572875253806 264.21900000000005 20.802999999999997 z M 283.188 20.804 C 283.1877238576251 21.632979409496023 282.515479409496 22.30477614237492 281.68649999999997 22.304500000000004 C 280.85752059050395 22.304223857625086 280.1857238576251 21.631979409496022 280.186 20.802999999999997 C 280.186 19.974020590503972 280.85802059050394 19.301999999999992 281.687 19.301999999999992 C 282.515979409496 19.301999999999992 283.188 19.974020590503972 283.188 20.802999999999997 z M 302.155 20.804 C 302.1547238576251 21.63242712474619 301.48292712474614 22.303776142374915 300.6545 22.3035 C 299.8260728752538 22.30322385762508 299.1547238576251 21.63142712474619 299.155 20.802999999999997 C 299.155 19.974572875253806 299.82657287525376 19.302999999999997 300.655 19.302999999999997 C 301.4834271247462 19.302999999999997 302.155 19.974572875253806 302.155 20.802999999999997 z M 321.123 20.804 C 321.1227238576251 21.632703267121098 320.4507032671211 22.304276142374903 319.622 22.303999999999988 C 318.7932967328789 22.30372385762507 318.1217238576251 21.631703267121097 318.122 20.802999999999997 C 318.122 19.974296732878898 318.7937967328789 19.30250000000001 319.6225 19.30250000000001 C 320.4512032671211 19.30250000000001 321.123 19.974296732878898 321.123 20.802999999999997 z M 112.476 40.026 C 112.49640461574218 40.57458454903321 112.21550447709572 41.09049502637738 111.743650502758 41.37105728806496 C 111.27179652842028 41.651619549752546 110.68437133747535 41.65201142779854 110.21214345071895 41.37207897389021 C 109.73991556396255 41.09214651998188 109.4583273361151 40.57661128504364 109.478 40.028000000000006 C 109.50692392804315 39.22139884902688 110.16891646346808 38.582292755439084 110.976035860118 38.581754316882275 C 111.78315525676791 38.58121587832547 112.44599991252184 39.21943815790982 112.476 40.026 z M 131.444 40.026 C 131.444 40.854427124746195 130.77242712474617 41.526 129.944 41.526 C 129.1155728752538 41.526 128.444 40.854427124746195 128.444 40.026 C 128.444 39.19757287525381 129.1155728752538 38.526 129.944 38.526 C 130.77242712474617 38.526 131.444 39.19757287525381 131.444 40.026 z M 150.412 40.026 C 150.412 40.854427124746195 149.7404271247462 41.526 148.912 41.526 C 148.08357287525382 41.526 147.412 40.854427124746195 147.412 40.026 C 147.412 39.19757287525381 148.08357287525382 38.526 148.912 38.526 C 149.7404271247462 38.526 150.412 39.19757287525381 150.412 40.026 z M 169.38 40.026 C 169.38 40.854427124746195 168.70842712474618 41.526 167.88 41.526 C 167.0515728752538 41.526 166.38 40.854427124746195 166.38 40.026 C 166.38 39.19757287525381 167.0515728752538 38.526 167.88 38.526 C 168.70842712474618 38.526 169.38 39.19757287525381 169.38 40.026 z M 188.348 40.026 C 188.348 40.854427124746195 187.6764271247462 41.526 186.848 41.526 C 186.01957287525383 41.526 185.348 40.854427124746195 185.348 40.026 C 185.348 39.19757287525381 186.01957287525383 38.526 186.848 38.526 C 187.6764271247462 38.526 188.348 39.19757287525381 188.348 40.026 z M 207.315 40.026 C 207.33540461574225 40.574584549033254 207.0545044770958 41.0904950263775 206.58265050275807 41.371057288065124 C 206.1107965284203 41.65161954975275 205.5233713374753 41.65201142779875 205.0511434507189 41.37207897389037 C 204.57891556396248 41.092146519981995 204.29732733611505 40.57661128504368 204.317 40.028000000000006 C 204.34592392804328 39.22139884902696 205.00791646346815 38.582292755439276 205.815035860118 38.581754316882474 C 206.62215525676785 38.581215878325665 207.28499991252173 39.2194381579099 207.315 40.026 z M 226.283 40.026 C 226.30340461574224 40.574584549033254 226.0225044770958 41.0904950263775 225.55065050275806 41.371057288065124 C 225.0787965284203 41.65161954975275 224.4913713374753 41.65201142779875 224.0191434507189 41.37207897389037 C 223.54691556396247 41.092146519981995 223.26532733611504 40.57661128504368 223.285 40.028000000000006 C 223.31392392804327 39.22139884902696 223.97591646346814 38.582292755439276 224.783035860118 38.581754316882474 C 225.59015525676784 38.581215878325665 226.25299991252172 39.2194381579099 226.283 40.026 z M 245.252 40.026 C 245.252 40.854427124746195 244.5804271247462 41.526 243.752 41.526 C 242.92357287525383 41.526 242.252 40.854427124746195 242.252 40.026 C 242.252 39.19757287525381 242.92357287525383 38.526 243.752 38.526 C 244.5804271247462 38.526 245.252 39.19757287525381 245.252 40.026 z M 264.22 40.026 C 264.22 40.854427124746195 263.54842712474624 41.526 262.72 41.526 C 261.8915728752538 41.526 261.22 40.854427124746195 261.22 40.026 C 261.22 39.19757287525381 261.8915728752538 38.526 262.72 38.526 C 263.54842712474624 38.526 264.22 39.19757287525381 264.22 40.026 z M 283.188 40.026 C 283.188 40.854427124746195 282.5164271247462 41.526 281.688 41.526 C 280.8595728752538 41.526 280.188 40.854427124746195 280.188 40.026 C 280.188 39.19757287525381 280.8595728752538 38.526 281.688 38.526 C 282.5164271247462 38.526 283.188 39.19757287525381 283.188 40.026 z M 302.155 40.026 C 302.155 40.854427124746195 301.4834271247462 41.526 300.655 41.526 C 299.82657287525376 41.526 299.155 40.854427124746195 299.155 40.026 C 299.155 39.19757287525381 299.82657287525376 38.526 300.655 38.526 C 301.4834271247462 38.526 302.155 39.19757287525381 302.155 40.026 z M 321.123 40.026 C 321.123 40.854427124746195 320.4514271247462 41.526 319.623 41.526 C 318.7945728752538 41.526 318.123 40.854427124746195 318.123 40.026 C 318.123 39.19757287525381 318.7945728752538 38.526 319.623 38.526 C 320.4514271247462 38.526 321.123 39.19757287525381 321.123 40.026 z M 112.476 59.25 C 112.49622419779735 59.798592868700375 112.21515262043174 60.31441220371701 111.74320410838494 60.594818615452304 C 111.27125559633814 60.875225027187604 110.68382834161852 60.87542096689898 110.21169287229391 60.59532945976054 C 109.7395574029693 60.3152379526221 109.45814177922304 59.79960623841971 109.478 59.251 C 109.50719656170648 58.44441132962049 110.1694010572556 57.80553014251046 110.97651793226287 57.805260924073174 C 111.78363480727012 57.80499170563588 112.4462653603469 58.44343098645884 112.476 59.25 z M 131.444 59.25 C 131.444 60.07842712474619 130.77242712474617 60.75 129.944 60.75 C 129.1155728752538 60.75 128.444 60.07842712474619 128.444 59.25 C 128.444 58.42157287525381 129.1155728752538 57.75 129.944 57.75 C 130.77242712474617 57.75 131.444 58.42157287525381 131.444 59.25 z M 150.412 59.25 C 150.412 60.07842712474619 149.7404271247462 60.75 148.912 60.75 C 148.08357287525382 60.75 147.412 60.07842712474619 147.412 59.25 C 147.412 58.42157287525381 148.08357287525382 57.75 148.912 57.75 C 149.7404271247462 57.75 150.412 58.42157287525381 150.412 59.25 z M 169.38 59.25 C 169.38 60.07842712474619 168.70842712474618 60.75 167.88 60.75 C 167.0515728752538 60.75 166.38 60.07842712474619 166.38 59.25 C 166.38 58.42157287525381 167.0515728752538 57.75 167.88 57.75 C 168.70842712474618 57.75 169.38 58.42157287525381 169.38 59.25 z M 188.348 59.25 C 188.348 60.07842712474619 187.6764271247462 60.75 186.848 60.75 C 186.01957287525383 60.75 185.348 60.07842712474619 185.348 59.25 C 185.348 58.42157287525381 186.01957287525383 57.75 186.848 57.75 C 187.6764271247462 57.75 188.348 58.42157287525381 188.348 59.25 z M 207.315 59.25 C 207.3352241977974 59.79859286870042 207.05415262043184 60.314412203717126 206.58220410838499 60.59481861545247 C 206.11025559633816 60.8752250271878 205.5228283416185 60.875420966899185 205.05069287229387 60.5953294597607 C 204.5785574029692 60.31523795262222 204.29714177922298 59.799606238419756 204.317 59.251 C 204.3461965617066 58.44441132962057 205.0084010572557 57.80553014251066 205.81551793226288 57.805260924073366 C 206.62263480727006 57.80499170563607 207.2852653603468 58.44343098645892 207.315 59.25 z M 226.283 59.25 C 226.3032241977974 59.79859286870042 226.02215262043183 60.314412203717126 225.55020410838497 60.59481861545247 C 225.07825559633815 60.8752250271878 224.49082834161848 60.875420966899185 224.01869287229385 60.5953294597607 C 223.5465574029692 60.31523795262222 223.26514177922297 59.799606238419756 223.285 59.251 C 223.31419656170658 58.44441132962057 223.97640105725569 57.80553014251066 224.78351793226287 57.805260924073366 C 225.59063480727005 57.80499170563607 226.2532653603468 58.44343098645892 226.283 59.25 z M 245.252 59.25 C 245.252 60.07842712474619 244.5804271247462 60.75 243.752 60.75 C 242.92357287525383 60.75 242.252 60.07842712474619 242.252 59.25 C 242.252 58.42157287525381 242.92357287525383 57.75 243.752 57.75 C 244.5804271247462 57.75 245.252 58.42157287525381 245.252 59.25 z M 264.22 59.25 C 264.22 60.07842712474619 263.54842712474624 60.75 262.72 60.75 C 261.8915728752538 60.75 261.22 60.07842712474619 261.22 59.25 C 261.22 58.42157287525381 261.8915728752538 57.75 262.72 57.75 C 263.54842712474624 57.75 264.22 58.42157287525381 264.22 59.25 z M 283.188 59.25 C 283.188 60.07842712474619 282.5164271247462 60.75 281.688 60.75 C 280.8595728752538 60.75 280.188 60.07842712474619 280.188 59.25 C 280.188 58.42157287525381 280.8595728752538 57.75 281.688 57.75 C 282.5164271247462 57.75 283.188 58.42157287525381 283.188 59.25 z M 302.155 59.25 C 302.155 60.07842712474619 301.4834271247462 60.75 300.655 60.75 C 299.82657287525376 60.75 299.155 60.07842712474619 299.155 59.25 C 299.155 58.42157287525381 299.82657287525376 57.75 300.655 57.75 C 301.4834271247462 57.75 302.155 58.42157287525381 302.155 59.25 z M 321.123 59.25 C 321.123 60.07842712474619 320.4514271247462 60.75 319.623 60.75 C 318.7945728752538 60.75 318.123 60.07842712474619 318.123 59.25 C 318.123 58.42157287525381 318.7945728752538 57.75 319.623 57.75 C 320.4514271247462 57.75 321.123 58.42157287525381 321.123 59.25 z M 112.476 78.473 C 112.49622419779735 79.02159286870038 112.21515262043174 79.53741220371701 111.74320410838494 79.81781861545231 C 111.27125559633814 80.0982250271876 110.68382834161852 80.09842096689898 110.21169287229391 79.81832945976055 C 109.7395574029693 79.53823795262211 109.45814177922304 79.02260623841971 109.478 78.474 C 109.50719656170648 77.6674113296205 110.1694010572556 77.02853014251048 110.97651793226287 77.02826092407318 C 111.78363480727012 77.02799170563588 112.4462653603469 77.66643098645883 112.476 78.473 z M 131.444 78.473 C 131.444 79.30142712474618 130.77242712474617 79.973 129.944 79.973 C 129.1155728752538 79.973 128.444 79.30142712474618 128.444 78.473 C 128.444 77.64457287525381 129.1155728752538 76.973 129.944 76.973 C 130.77242712474617 76.973 131.444 77.64457287525381 131.444 78.473 z M 150.412 78.473 C 150.412 79.30142712474618 149.7404271247462 79.973 148.912 79.973 C 148.08357287525382 79.973 147.412 79.30142712474618 147.412 78.473 C 147.412 77.64457287525381 148.08357287525382 76.973 148.912 76.973 C 149.7404271247462 76.973 150.412 77.64457287525381 150.412 78.473 z M 169.38 78.473 C 169.38 79.30142712474618 168.70842712474618 79.973 167.88 79.973 C 167.0515728752538 79.973 166.38 79.30142712474618 166.38 78.473 C 166.38 77.64457287525381 167.0515728752538 76.973 167.88 76.973 C 168.70842712474618 76.973 169.38 77.64457287525381 169.38 78.473 z M 188.348 78.473 C 188.348 79.30142712474618 187.6764271247462 79.973 186.848 79.973 C 186.01957287525383 79.973 185.348 79.30142712474618 185.348 78.473 C 185.348 77.64457287525381 186.01957287525383 76.973 186.848 76.973 C 187.6764271247462 76.973 188.348 77.64457287525381 188.348 78.473 z M 207.315 78.473 C 207.3352241977974 79.02159286870042 207.05415262043184 79.53741220371712 206.582204108385 79.81781861545247 C 206.11025559633816 80.09822502718781 205.5228283416185 80.09842096689918 205.05069287229387 79.8183294597607 C 204.57855740296924 79.53823795262223 204.29714177922298 79.02260623841977 204.317 78.474 C 204.3461965617066 77.66741132962058 205.00840105725567 77.02853014251066 205.81551793226288 77.02826092407336 C 206.62263480727006 77.02799170563607 207.2852653603468 77.66643098645892 207.315 78.473 z M 226.283 78.473 C 226.3032241977974 79.02159286870042 226.02215262043183 79.53741220371712 225.550204108385 79.81781861545247 C 225.07825559633815 80.09822502718781 224.49082834161848 80.09842096689918 224.01869287229385 79.8183294597607 C 223.54655740296923 79.53823795262223 223.26514177922297 79.02260623841977 223.285 78.474 C 223.31419656170658 77.66741132962058 223.97640105725566 77.02853014251066 224.78351793226287 77.02826092407336 C 225.59063480727005 77.02799170563607 226.2532653603468 77.66643098645892 226.283 78.473 z M 245.252 78.473 C 245.252 79.30142712474618 244.5804271247462 79.973 243.752 79.973 C 242.92357287525383 79.973 242.252 79.30142712474618 242.252 78.473 C 242.252 77.64457287525381 242.92357287525383 76.973 243.752 76.973 C 244.5804271247462 76.973 245.252 77.64457287525381 245.252 78.473 z M 264.22 78.473 C 264.22 79.30142712474618 263.54842712474624 79.973 262.72 79.973 C 261.8915728752538 79.973 261.22 79.30142712474618 261.22 78.473 C 261.22 77.64457287525381 261.8915728752538 76.973 262.72 76.973 C 263.54842712474624 76.973 264.22 77.64457287525381 264.22 78.473 z M 283.188 78.473 C 283.188 79.30142712474618 282.5164271247462 79.973 281.688 79.973 C 280.8595728752538 79.973 280.188 79.30142712474618 280.188 78.473 C 280.188 77.64457287525381 280.8595728752538 76.973 281.688 76.973 C 282.5164271247462 76.973 283.188 77.64457287525381 283.188 78.473 z M 302.155 78.473 C 302.155 79.30142712474618 301.4834271247462 79.973 300.655 79.973 C 299.82657287525376 79.973 299.155 79.30142712474618 299.155 78.473 C 299.155 77.64457287525381 299.82657287525376 76.973 300.655 76.973 C 301.4834271247462 76.973 302.155 77.64457287525381 302.155 78.473 z M 321.123 78.473 C 321.123 79.30142712474618 320.4514271247462 79.973 319.623 79.973 C 318.7945728752538 79.973 318.123 79.30142712474618 318.123 78.473 C 318.123 77.64457287525381 318.7945728752538 76.973 319.623 76.973 C 320.4514271247462 76.973 321.123 77.64457287525381 321.123 78.473 z M 112.476 97.696 C 112.49622419779735 98.24459286870038 112.21515262043174 98.76041220371701 111.74320410838494 99.04081861545231 C 111.27125559633814 99.3212250271876 110.68382834161852 99.32142096689898 110.21169287229391 99.04132945976055 C 109.7395574029693 98.76123795262211 109.45814177922304 98.24560623841971 109.478 97.697 C 109.50719656170648 96.8904113296205 110.1694010572556 96.25153014251046 110.97651793226287 96.25126092407318 C 111.78363480727012 96.25099170563588 112.4462653603469 96.88943098645883 112.476 97.696 z M 131.444 97.696 C 131.444 98.52442712474618 130.77242712474617 99.196 129.944 99.196 C 129.1155728752538 99.196 128.444 98.52442712474618 128.444 97.696 C 128.444 96.86757287525381 129.1155728752538 96.196 129.944 96.196 C 130.77242712474617 96.196 131.444 96.86757287525381 131.444 97.696 z M 150.412 97.696 C 150.412 98.52442712474618 149.7404271247462 99.196 148.912 99.196 C 148.08357287525382 99.196 147.412 98.52442712474618 147.412 97.696 C 147.412 96.86757287525381 148.08357287525382 96.196 148.912 96.196 C 149.7404271247462 96.196 150.412 96.86757287525381 150.412 97.696 z M 169.38 97.696 C 169.38 98.52442712474618 168.70842712474618 99.196 167.88 99.196 C 167.0515728752538 99.196 166.38 98.52442712474618 166.38 97.696 C 166.38 96.86757287525381 167.0515728752538 96.196 167.88 96.196 C 168.70842712474618 96.196 169.38 96.86757287525381 169.38 97.696 z M 188.348 97.696 C 188.348 98.52442712474618 187.6764271247462 99.196 186.848 99.196 C 186.01957287525383 99.196 185.348 98.52442712474618 185.348 97.696 C 185.348 96.86757287525381 186.01957287525383 96.196 186.848 96.196 C 187.6764271247462 96.196 188.348 96.86757287525381 188.348 97.696 z M 207.315 97.696 C 207.3352241977974 98.24459286870042 207.05415262043184 98.76041220371712 206.582204108385 99.04081861545247 C 206.11025559633816 99.32122502718781 205.5228283416185 99.32142096689918 205.05069287229387 99.0413294597607 C 204.57855740296924 98.76123795262222 204.29714177922298 98.24560623841977 204.317 97.697 C 204.3461965617066 96.89041132962058 205.00840105725567 96.25153014251066 205.81551793226288 96.25126092407336 C 206.62263480727006 96.25099170563607 207.2852653603468 96.88943098645892 207.315 97.696 z M 226.283 97.696 C 226.3032241977974 98.24459286870042 226.02215262043183 98.76041220371712 225.550204108385 99.04081861545247 C 225.07825559633815 99.32122502718781 224.49082834161848 99.32142096689918 224.01869287229385 99.0413294597607 C 223.54655740296923 98.76123795262222 223.26514177922297 98.24560623841977 223.285 97.697 C 223.31419656170658 96.89041132962058 223.97640105725566 96.25153014251066 224.78351793226287 96.25126092407336 C 225.59063480727005 96.25099170563607 226.2532653603468 96.88943098645892 226.283 97.696 z M 245.252 97.696 C 245.252 98.52442712474618 244.5804271247462 99.196 243.752 99.196 C 242.92357287525383 99.196 242.252 98.52442712474618 242.252 97.696 C 242.252 96.86757287525381 242.92357287525383 96.196 243.752 96.196 C 244.5804271247462 96.196 245.252 96.86757287525381 245.252 97.696 z M 264.22 97.696 C 264.22 98.52442712474618 263.54842712474624 99.196 262.72 99.196 C 261.8915728752538 99.196 261.22 98.52442712474618 261.22 97.696 C 261.22 96.86757287525381 261.8915728752538 96.196 262.72 96.196 C 263.54842712474624 96.196 264.22 96.86757287525381 264.22 97.696 z M 283.188 97.696 C 283.188 98.52442712474618 282.5164271247462 99.196 281.688 99.196 C 280.8595728752538 99.196 280.188 98.52442712474618 280.188 97.696 C 280.188 96.86757287525381 280.8595728752538 96.196 281.688 96.196 C 282.5164271247462 96.196 283.188 96.86757287525381 283.188 97.696 z M 302.155 97.696 C 302.155 98.52442712474618 301.4834271247462 99.196 300.655 99.196 C 299.82657287525376 99.196 299.155 98.52442712474618 299.155 97.696 C 299.155 96.86757287525381 299.82657287525376 96.196 300.655 96.196 C 301.4834271247462 96.196 302.155 96.86757287525381 302.155 97.696 z M 321.123 97.696 C 321.123 98.52442712474618 320.4514271247462 99.196 319.623 99.196 C 318.7945728752538 99.196 318.123 98.52442712474618 318.123 97.696 C 318.123 96.86757287525381 318.7945728752538 96.196 319.623 96.196 C 320.4514271247462 96.196 321.123 96.86757287525381 321.123 97.696 z M 112.476 116.92 C 112.476 117.74842712474619 111.80442712474618 118.42 110.976 118.42 C 110.14757287525381 118.42 109.476 117.74842712474619 109.476 116.92 C 109.476 116.09157287525382 110.14757287525381 115.42 110.976 115.42 C 111.80442712474618 115.42 112.476 116.09157287525382 112.476 116.92 z M 131.444 116.92 C 131.44344771525016 117.74842712474619 130.77142712474617 118.41955228474983 129.94299999999998 118.41900000000001 C 129.1145728752538 118.41844771525018 128.44344771525016 117.74642712474619 128.444 116.918 C 128.44417863279494 116.38210161513776 128.73024208116664 115.88700638621609 129.1944330127019 115.61921189432336 C 129.65862394423712 115.35141740243061 130.2304207139616 115.35160800135385 130.6944330127019 115.61971189432334 C 131.15844531144216 115.88781578729285 131.44417863279494 116.38310161513776 131.444 116.91900000000001 z M 150.412 116.92 C 150.41144771525018 117.74870326712112 149.73920326712113 118.42005228474983 148.9105 118.4195 C 148.0817967328789 118.41894771525017 147.41044771525017 117.74670326712112 147.411 116.918 C 147.41127614237493 116.08929673287889 148.0832967328789 115.41772385762509 148.912 115.418 C 149.74070326712112 115.41827614237492 150.41227614237494 116.0902967328789 150.412 116.91900000000001 z M 169.38 116.92 C 169.37944771525017 117.74870326712112 168.70720326712112 118.42005228474983 167.8785 118.4195 C 167.0497967328789 118.41894771525017 166.37844771525016 117.74670326712112 166.379 116.918 C 166.37917863279495 116.38210161513776 166.66524208116664 115.88700638621609 167.1294330127019 115.61921189432336 C 167.59362394423712 115.35141740243061 168.1654207139616 115.35160800135385 168.6294330127019 115.61971189432334 C 169.09344531144217 115.88781578729285 169.37917863279495 116.38310161513776 169.379 116.91900000000001 z M 188.348 116.92 C 188.34744771525018 117.74870326712112 187.67520326712113 118.42005228474983 186.84650000000002 118.4195 C 186.0177967328789 118.41894771525017 185.34644771525018 117.74670326712112 185.347 116.918 C 185.34717863279496 116.38210161513776 185.63324208116666 115.88700638621609 186.0974330127019 115.61921189432336 C 186.56162394423714 115.35141740243061 187.1334207139616 115.35160800135385 187.5974330127019 115.61971189432334 C 188.06144531144218 115.88781578729285 188.34717863279496 116.38310161513776 188.347 116.91900000000001 z M 207.315 116.92 C 207.315 117.74842712474619 206.64342712474618 118.42 205.815 118.42 C 204.9865728752538 118.42 204.315 117.74842712474619 204.315 116.92 C 204.315 116.09157287525382 204.9865728752538 115.42 205.815 115.42 C 206.64342712474618 115.42 207.315 116.09157287525382 207.315 116.92 z M 226.283 116.92 C 226.283 117.74842712474619 225.61142712474617 118.42 224.783 118.42 C 223.9545728752538 118.42 223.283 117.74842712474619 223.283 116.92 C 223.283 116.09157287525382 223.9545728752538 115.42 224.783 115.42 C 225.61142712474617 115.42 226.283 116.09157287525382 226.283 116.92 z M 245.252 116.92 C 245.25144771525018 117.74870326712112 244.57920326712113 118.42005228474983 243.75050000000002 118.4195 C 242.9217967328789 118.41894771525017 242.25044771525017 117.74670326712112 242.251 116.918 C 242.25127614237493 116.08929673287889 242.9232967328789 115.41772385762509 243.752 115.418 C 244.58070326712112 115.41827614237492 245.25227614237494 116.0902967328789 245.252 116.91900000000001 z M 264.22 116.92 C 264.2194477152502 117.7487032671211 263.5472032671211 118.42005228474981 262.71850000000006 118.4195 C 261.88979673287895 118.41894771525017 261.21844771525025 117.7467032671211 261.21900000000005 116.918 C 261.219178632795 116.38210161513776 261.5052420811667 115.88700638621609 261.9694330127019 115.61921189432336 C 262.4336239442372 115.35141740243061 263.00542071396166 115.35160800135385 263.4694330127019 115.61971189432334 C 263.9334453114422 115.88781578729285 264.219178632795 116.38310161513776 264.21900000000005 116.91900000000001 z M 283.188 116.92 C 283.1874477152502 117.74897940949603 282.514979409496 118.42055228474983 281.686 118.42000000000002 C 280.85702059050396 118.41944771525019 280.1854477152502 117.74697940949603 280.186 116.918 C 280.1862761423749 116.08902059050398 280.858520590504 115.41722385762509 281.6875 115.4175 C 282.516479409496 115.41777614237492 283.1882761423749 116.09002059050398 283.188 116.91900000000001 z M 302.155 116.92 C 302.15444771525017 117.74842712474619 301.48242712474615 118.41955228474983 300.654 118.41900000000001 C 299.8255728752538 118.41844771525018 299.15444771525017 117.74642712474619 299.155 116.918 C 299.1551786327949 116.38210161513776 299.44124208116665 115.88700638621609 299.90543301270185 115.61921189432336 C 300.3696239442371 115.35141740243061 300.9414207139616 115.35160800135385 301.40543301270185 115.61971189432334 C 301.8694453114421 115.88781578729285 302.1551786327949 116.38310161513776 302.155 116.91900000000001 z M 321.123 116.92 C 321.1224477152502 117.7487032671211 320.4502032671211 118.42005228474981 319.6215 118.4195 C 318.7927967328789 118.41894771525017 318.1214477152502 117.7467032671211 318.122 116.918 C 318.1222761423749 116.0892967328789 318.79429673287893 115.4177238576251 319.623 115.41800000000002 C 320.4517032671211 115.41827614237494 321.1232761423749 116.09029673287891 321.123 116.91900000000001 z M 112.476 136.142 C 112.476 136.97042712474618 111.80442712474618 137.642 110.976 137.642 C 110.14757287525381 137.642 109.476 136.97042712474618 109.476 136.142 C 109.476 135.3135728752538 110.14757287525381 134.642 110.976 134.642 C 111.80442712474618 134.642 112.476 135.3135728752538 112.476 136.142 z M 131.444 136.142 C 131.444 136.97042712474618 130.77242712474617 137.642 129.944 137.642 C 129.1155728752538 137.642 128.444 136.97042712474618 128.444 136.142 C 128.444 135.3135728752538 129.1155728752538 134.642 129.944 134.642 C 130.77242712474617 134.642 131.444 135.3135728752538 131.444 136.142 z M 150.412 136.142 C 150.412 136.9707032671211 149.7402032671211 137.64249999999998 148.9115 137.64249999999998 C 148.0827967328789 137.64249999999998 147.411 136.9707032671211 147.411 136.142 C 147.411 135.31329673287888 148.0827967328789 134.6415 148.9115 134.6415 C 149.7402032671211 134.6415 150.412 135.31329673287888 150.412 136.142 z M 169.38 136.142 C 169.38 136.9707032671211 168.7082032671211 137.64249999999998 167.8795 137.64249999999998 C 167.0507967328789 137.64249999999998 166.379 136.9707032671211 166.379 136.142 C 166.379 135.3135728752538 167.0505728752538 134.642 167.879 134.642 C 168.70742712474618 134.642 169.379 135.3135728752538 169.379 136.142 z M 188.348 136.142 C 188.348 136.9707032671211 187.6762032671211 137.64249999999998 186.84750000000003 137.64249999999998 C 186.0187967328789 137.64249999999998 185.347 136.9707032671211 185.347 136.142 C 185.347 135.3135728752538 186.01857287525382 134.642 186.847 134.642 C 187.6754271247462 134.642 188.347 135.3135728752538 188.347 136.142 z M 207.315 136.142 C 207.315 136.97042712474618 206.64342712474618 137.642 205.815 137.642 C 204.9865728752538 137.642 204.315 136.97042712474618 204.315 136.142 C 204.315 135.3135728752538 204.9865728752538 134.642 205.815 134.642 C 206.64342712474618 134.642 207.315 135.3135728752538 207.315 136.142 z M 226.283 136.142 C 226.283 136.97042712474618 225.61142712474617 137.642 224.783 137.642 C 223.9545728752538 137.642 223.283 136.97042712474618 223.283 136.142 C 223.283 135.3135728752538 223.9545728752538 134.642 224.783 134.642 C 225.61142712474617 134.642 226.283 135.3135728752538 226.283 136.142 z M 245.252 136.142 C 245.252 136.9707032671211 244.5802032671211 137.64249999999998 243.75150000000002 137.64249999999998 C 242.9227967328789 137.64249999999998 242.251 136.9707032671211 242.251 136.142 C 242.251 135.31329673287888 242.9227967328789 134.6415 243.75150000000002 134.6415 C 244.5802032671211 134.6415 245.252 135.31329673287888 245.252 136.142 z M 264.22 136.142 C 264.22 136.97070326712108 263.54820326712115 137.64249999999998 262.71950000000004 137.64249999999998 C 261.8907967328789 137.64249999999998 261.21900000000005 136.97070326712108 261.21900000000005 136.142 C 261.21900000000005 135.3135728752538 261.89057287525384 134.642 262.71900000000005 134.642 C 263.54742712474626 134.642 264.21900000000005 135.3135728752538 264.21900000000005 136.142 z M 283.188 136.142 C 283.188 136.970979409496 282.515979409496 137.643 281.687 137.643 C 280.85802059050394 137.643 280.186 136.970979409496 280.186 136.142 C 280.186 135.31302059050398 280.85802059050394 134.641 281.687 134.641 C 282.515979409496 134.641 283.188 135.31302059050398 283.188 136.142 z M 302.155 136.142 C 302.155 136.97042712474618 301.4834271247462 137.642 300.655 137.642 C 299.82657287525376 137.642 299.155 136.97042712474618 299.155 136.142 C 299.155 135.3135728752538 299.82657287525376 134.642 300.655 134.642 C 301.4834271247462 134.642 302.155 135.3135728752538 302.155 136.142 z M 321.123 136.142 C 321.123 136.97070326712108 320.4512032671211 137.64249999999998 319.6225 137.64249999999998 C 318.7937967328789 137.64249999999998 318.122 136.97070326712108 318.122 136.142 C 318.122 135.3132967328789 318.7937967328789 134.6415 319.6225 134.6415 C 320.4512032671211 134.6415 321.123 135.3132967328789 321.123 136.142 z M 112.476 155.365 C 112.49622419779735 155.9135928687004 112.21515262043174 156.42941220371702 111.74320410838494 156.70981861545232 C 111.27125559633814 156.99022502718762 110.68382834161852 156.990420966899 110.21169287229391 156.71032945976054 C 109.7395574029693 156.43023795262212 109.45814177922304 155.91460623841974 109.478 155.366 C 109.50719656170648 154.5594113296205 110.1694010572556 153.92053014251047 110.97651793226287 153.92026092407318 C 111.78363480727012 153.91999170563588 112.4462653603469 154.55843098645886 112.476 155.365 z M 131.444 155.365 C 131.444 156.1934271247462 130.77242712474617 156.865 129.944 156.865 C 129.1155728752538 156.865 128.444 156.1934271247462 128.444 155.365 C 128.444 154.53657287525382 129.1155728752538 153.865 129.944 153.865 C 130.77242712474617 153.865 131.444 154.53657287525382 131.444 155.365 z M 150.412 155.365 C 150.412 156.1934271247462 149.7404271247462 156.865 148.912 156.865 C 148.08357287525382 156.865 147.412 156.1934271247462 147.412 155.365 C 147.412 154.53657287525382 148.08357287525382 153.865 148.912 153.865 C 149.7404271247462 153.865 150.412 154.53657287525382 150.412 155.365 z M 169.38 155.365 C 169.38 156.1934271247462 168.70842712474618 156.865 167.88 156.865 C 167.0515728752538 156.865 166.38 156.1934271247462 166.38 155.365 C 166.38 154.53657287525382 167.0515728752538 153.865 167.88 153.865 C 168.70842712474618 153.865 169.38 154.53657287525382 169.38 155.365 z M 188.348 155.365 C 188.348 156.1934271247462 187.6764271247462 156.865 186.848 156.865 C 186.01957287525383 156.865 185.348 156.1934271247462 185.348 155.365 C 185.348 154.53657287525382 186.01957287525383 153.865 186.848 153.865 C 187.6764271247462 153.865 188.348 154.53657287525382 188.348 155.365 z M 207.315 155.365 C 207.3352241977974 155.91359286870042 207.05415262043184 156.42941220371713 206.582204108385 156.7098186154525 C 206.11025559633816 156.99022502718782 205.5228283416185 156.9904209668992 205.05069287229387 156.71032945976071 C 204.57855740296924 156.43023795262224 204.29714177922298 155.91460623841976 204.317 155.366 C 204.3461965617066 154.5594113296206 205.00840105725567 153.92053014251067 205.81551793226288 153.92026092407338 C 206.62263480727006 153.91999170563608 207.2852653603468 154.55843098645894 207.315 155.365 z M 226.283 155.365 C 226.3032241977974 155.91359286870042 226.02215262043183 156.42941220371713 225.550204108385 156.7098186154525 C 225.07825559633815 156.99022502718782 224.49082834161848 156.9904209668992 224.01869287229385 156.71032945976071 C 223.54655740296923 156.43023795262224 223.26514177922297 155.91460623841976 223.285 155.366 C 223.31419656170658 154.5594113296206 223.97640105725566 153.92053014251067 224.78351793226287 153.92026092407338 C 225.59063480727005 153.91999170563608 226.2532653603468 154.55843098645894 226.283 155.365 z M 245.252 155.365 C 245.252 156.1934271247462 244.5804271247462 156.865 243.752 156.865 C 242.92357287525383 156.865 242.252 156.1934271247462 242.252 155.365 C 242.252 154.53657287525382 242.92357287525383 153.865 243.752 153.865 C 244.5804271247462 153.865 245.252 154.53657287525382 245.252 155.365 z M 264.22 155.365 C 264.22 156.1934271247462 263.54842712474624 156.865 262.72 156.865 C 261.8915728752538 156.865 261.22 156.1934271247462 261.22 155.365 C 261.22 154.53657287525382 261.8915728752538 153.865 262.72 153.865 C 263.54842712474624 153.865 264.22 154.53657287525382 264.22 155.365 z M 283.188 155.365 C 283.188 156.1934271247462 282.5164271247462 156.865 281.688 156.865 C 280.8595728752538 156.865 280.188 156.1934271247462 280.188 155.365 C 280.188 154.53657287525382 280.8595728752538 153.865 281.688 153.865 C 282.5164271247462 153.865 283.188 154.53657287525382 283.188 155.365 z M 302.155 155.365 C 302.155 156.1934271247462 301.4834271247462 156.865 300.655 156.865 C 299.82657287525376 156.865 299.155 156.1934271247462 299.155 155.365 C 299.155 154.53657287525382 299.82657287525376 153.865 300.655 153.865 C 301.4834271247462 153.865 302.155 154.53657287525382 302.155 155.365 z M 321.123 155.365 C 321.123 156.1934271247462 320.4514271247462 156.865 319.623 156.865 C 318.7945728752538 156.865 318.123 156.1934271247462 318.123 155.365 C 318.123 154.53657287525382 318.7945728752538 153.865 319.623 153.865 C 320.4514271247462 153.865 321.123 154.53657287525382 321.123 155.365 z M 112.476 174.588 C 112.4964046157422 175.1365845490332 112.21550447709572 175.65249502637738 111.743650502758 175.93305728806496 C 111.27179652842028 176.21361954975254 110.68437133747535 176.21401142779854 110.21214345071895 175.9340789738902 C 109.73991556396255 175.65414651998188 109.4583273361151 175.13861128504362 109.478 174.59 C 109.50692392804315 173.7833988490269 110.16891646346807 173.14429275543907 110.97603586011799 173.14375431688228 C 111.78315525676791 173.14321587832546 112.44599991252184 173.7814381579098 112.476 174.588 z M 131.444 174.588 C 131.444 175.41642712474618 130.77242712474617 176.088 129.944 176.088 C 129.1155728752538 176.088 128.444 175.41642712474618 128.444 174.588 C 128.444 173.7595728752538 129.1155728752538 173.088 129.944 173.088 C 130.77242712474617 173.088 131.444 173.7595728752538 131.444 174.588 z M 150.412 174.588 C 150.412 175.41642712474618 149.7404271247462 176.088 148.912 176.088 C 148.08357287525382 176.088 147.412 175.41642712474618 147.412 174.588 C 147.412 173.7595728752538 148.08357287525382 173.088 148.912 173.088 C 149.7404271247462 173.088 150.412 173.7595728752538 150.412 174.588 z M 169.38 174.588 C 169.38 175.41642712474618 168.70842712474618 176.088 167.88 176.088 C 167.0515728752538 176.088 166.38 175.41642712474618 166.38 174.588 C 166.38 173.7595728752538 167.0515728752538 173.088 167.88 173.088 C 168.70842712474618 173.088 169.38 173.7595728752538 169.38 174.588 z M 188.348 174.588 C 188.348 175.41642712474618 187.6764271247462 176.088 186.848 176.088 C 186.01957287525383 176.088 185.348 175.41642712474618 185.348 174.588 C 185.348 173.7595728752538 186.01957287525383 173.088 186.848 173.088 C 187.6764271247462 173.088 188.348 173.7595728752538 188.348 174.588 z M 207.315 174.588 C 207.33540461574225 175.13658454903324 207.0545044770958 175.6524950263775 206.58265050275807 175.93305728806513 C 206.1107965284203 176.21361954975274 205.52337133747534 176.21401142779874 205.0511434507189 175.93407897389037 C 204.57891556396248 175.654146519982 204.29732733611505 175.13861128504368 204.317 174.59 C 204.34592392804325 173.78339884902695 205.00791646346815 173.14429275543927 205.815035860118 173.14375431688248 C 206.62215525676785 173.14321587832566 207.28499991252173 173.7814381579099 207.315 174.588 z M 226.283 174.588 C 226.30340461574224 175.13658454903324 226.0225044770958 175.6524950263775 225.55065050275806 175.93305728806513 C 225.0787965284203 176.21361954975274 224.49137133747533 176.21401142779874 224.0191434507189 175.93407897389037 C 223.54691556396247 175.654146519982 223.26532733611504 175.13861128504368 223.285 174.59 C 223.31392392804324 173.78339884902695 223.97591646346814 173.14429275543927 224.783035860118 173.14375431688248 C 225.59015525676784 173.14321587832566 226.25299991252172 173.7814381579099 226.283 174.588 z M 245.252 174.588 C 245.252 175.41642712474618 244.5804271247462 176.088 243.752 176.088 C 242.92357287525383 176.088 242.252 175.41642712474618 242.252 174.588 C 242.252 173.7595728752538 242.92357287525383 173.088 243.752 173.088 C 244.5804271247462 173.088 245.252 173.7595728752538 245.252 174.588 z M 264.22 174.588 C 264.22 175.41642712474618 263.54842712474624 176.088 262.72 176.088 C 261.8915728752538 176.088 261.22 175.41642712474618 261.22 174.588 C 261.22 173.7595728752538 261.8915728752538 173.088 262.72 173.088 C 263.54842712474624 173.088 264.22 173.7595728752538 264.22 174.588 z M 283.188 174.588 C 283.188 175.41642712474618 282.5164271247462 176.088 281.688 176.088 C 280.8595728752538 176.088 280.188 175.41642712474618 280.188 174.588 C 280.188 173.7595728752538 280.8595728752538 173.088 281.688 173.088 C 282.5164271247462 173.088 283.188 173.7595728752538 283.188 174.588 z M 302.155 174.588 C 302.155 175.41642712474618 301.4834271247462 176.088 300.655 176.088 C 299.82657287525376 176.088 299.155 175.41642712474618 299.155 174.588 C 299.155 173.7595728752538 299.82657287525376 173.088 300.655 173.088 C 301.4834271247462 173.088 302.155 173.7595728752538 302.155 174.588 z M 321.123 174.588 C 321.123 175.41642712474618 320.4514271247462 176.088 319.623 176.088 C 318.7945728752538 176.088 318.123 175.41642712474618 318.123 174.588 C 318.123 173.7595728752538 318.7945728752538 173.088 319.623 173.088 C 320.4514271247462 173.088 321.123 173.7595728752538 321.123 174.588 z M 112.476 193.811 C 112.4964046157422 194.3595845490332 112.21550447709572 194.8754950263774 111.743650502758 195.15605728806497 C 111.27179652842028 195.43661954975255 110.68437133747535 195.43701142779855 110.21214345071895 195.1570789738902 C 109.73991556396255 194.8771465199819 109.4583273361151 194.36161128504364 109.478 193.81300000000002 C 109.50692392804315 193.0063988490269 110.16891646346807 192.36729275543908 110.97603586011799 192.3667543168823 C 111.78315525676791 192.36621587832548 112.44599991252184 193.00443815790982 112.476 193.811 z M 131.444 193.811 C 131.444 194.6394271247462 130.77242712474617 195.311 129.944 195.311 C 129.1155728752538 195.311 128.444 194.6394271247462 128.444 193.811 C 128.444 192.98257287525382 129.1155728752538 192.311 129.944 192.311 C 130.77242712474617 192.311 131.444 192.98257287525382 131.444 193.811 z M 150.412 193.811 C 150.412 194.6394271247462 149.7404271247462 195.311 148.912 195.311 C 148.08357287525382 195.311 147.412 194.6394271247462 147.412 193.811 C 147.412 192.98257287525382 148.08357287525382 192.311 148.912 192.311 C 149.7404271247462 192.311 150.412 192.98257287525382 150.412 193.811 z M 169.38 193.811 C 169.38 194.6394271247462 168.70842712474618 195.311 167.88 195.311 C 167.0515728752538 195.311 166.38 194.6394271247462 166.38 193.811 C 166.38 192.98257287525382 167.0515728752538 192.311 167.88 192.311 C 168.70842712474618 192.311 169.38 192.98257287525382 169.38 193.811 z M 188.348 193.811 C 188.348 194.6394271247462 187.6764271247462 195.311 186.848 195.311 C 186.01957287525383 195.311 185.348 194.6394271247462 185.348 193.811 C 185.348 192.98257287525382 186.01957287525383 192.311 186.848 192.311 C 187.6764271247462 192.311 188.348 192.98257287525382 188.348 193.811 z M 207.315 193.811 C 207.33540461574225 194.35958454903326 207.0545044770958 194.8754950263775 206.58265050275807 195.15605728806514 C 206.1107965284203 195.43661954975275 205.52337133747534 195.43701142779875 205.0511434507189 195.15707897389038 C 204.57891556396248 194.877146519982 204.29732733611505 194.3616112850437 204.317 193.81300000000002 C 204.34592392804325 193.00639884902697 205.00791646346815 192.36729275543928 205.815035860118 192.3667543168825 C 206.62215525676785 192.36621587832568 207.28499991252173 193.0044381579099 207.315 193.811 z M 226.283 193.811 C 226.30340461574224 194.35958454903326 226.0225044770958 194.8754950263775 225.55065050275806 195.15605728806514 C 225.0787965284203 195.43661954975275 224.49137133747533 195.43701142779875 224.0191434507189 195.15707897389038 C 223.54691556396247 194.877146519982 223.26532733611504 194.3616112850437 223.285 193.81300000000002 C 223.31392392804324 193.00639884902697 223.97591646346814 192.36729275543928 224.783035860118 192.3667543168825 C 225.59015525676784 192.36621587832568 226.25299991252172 193.0044381579099 226.283 193.811 z M 245.252 193.811 C 245.252 194.6394271247462 244.5804271247462 195.311 243.752 195.311 C 242.92357287525383 195.311 242.252 194.6394271247462 242.252 193.811 C 242.252 192.98257287525382 242.92357287525383 192.311 243.752 192.311 C 244.5804271247462 192.311 245.252 192.98257287525382 245.252 193.811 z M 264.22 193.811 C 264.22 194.6394271247462 263.54842712474624 195.311 262.72 195.311 C 261.8915728752538 195.311 261.22 194.6394271247462 261.22 193.811 C 261.22 192.98257287525382 261.8915728752538 192.311 262.72 192.311 C 263.54842712474624 192.311 264.22 192.98257287525382 264.22 193.811 z M 283.188 193.811 C 283.188 194.6394271247462 282.5164271247462 195.311 281.688 195.311 C 280.8595728752538 195.311 280.188 194.6394271247462 280.188 193.811 C 280.188 192.98257287525382 280.8595728752538 192.311 281.688 192.311 C 282.5164271247462 192.311 283.188 192.98257287525382 283.188 193.811 z M 302.155 193.811 C 302.155 194.6394271247462 301.4834271247462 195.311 300.655 195.311 C 299.82657287525376 195.311 299.155 194.6394271247462 299.155 193.811 C 299.155 192.98257287525382 299.82657287525376 192.311 300.655 192.311 C 301.4834271247462 192.311 302.155 192.98257287525382 302.155 193.811 z M 321.123 193.811 C 321.123 194.6394271247462 320.4514271247462 195.311 319.623 195.311 C 318.7945728752538 195.311 318.123 194.6394271247462 318.123 193.811 C 318.123 192.98257287525382 318.7945728752538 192.311 319.623 192.311 C 320.4514271247462 192.311 321.123 192.98257287525382 321.123 193.811 z" stroke-linecap="round" />
</g>
		<g transform="matrix(1 0 0 1 327.8 164.17)" id="avatar-shapes"  >
<path style="stroke: none; stroke-width: 1; stroke-dasharray: none; stroke-linecap: butt; stroke-dashoffset: 0; stroke-linejoin: miter; stroke-miterlimit: 4; fill: rgb(72,49,212); fill-rule: nonzero; opacity: 1;" vector-effect="non-scaling-stroke"  transform=" translate(-795.3, -514.67)" d="M 692.477 418.551 C 692.477 419.3797032671211 691.8052032671211 420.0515 690.9765 420.0515 C 690.1477967328789 420.0515 689.476 419.3797032671211 689.476 418.551 C 689.476 417.7225728752538 690.1475728752538 417.051 690.976 417.051 C 691.8044271247462 417.051 692.476 417.7225728752538 692.476 418.551 z M 711.444 418.551 C 711.444 419.3794271247462 710.7724271247462 420.051 709.944 420.051 C 709.1155728752537 420.051 708.444 419.3794271247462 708.444 418.551 C 708.444 417.7225728752538 709.1155728752537 417.051 709.944 417.051 C 710.7724271247462 417.051 711.444 417.7225728752538 711.444 418.551 z M 730.412 418.551 C 730.412 419.3797032671211 729.7402032671212 420.0515 728.9115 420.0515 C 728.0827967328789 420.0515 727.4110000000001 419.3797032671211 727.4110000000001 418.551 C 727.4110000000001 417.7222967328789 728.0827967328789 417.0505 728.9115 417.0505 C 729.7402032671212 417.0505 730.412 417.7222967328789 730.412 418.551 z M 749.38 418.551 C 749.38 419.3797032671211 748.7082032671211 420.0515 747.8795 420.0515 C 747.0507967328789 420.0515 746.379 419.3797032671211 746.379 418.551 C 746.379 417.7225728752538 747.0505728752538 417.051 747.879 417.051 C 748.7074271247462 417.051 749.379 417.7225728752538 749.379 418.551 z M 768.348 418.551 C 768.348 419.3797032671211 767.6762032671211 420.0515 766.8475 420.0515 C 766.0187967328789 420.0515 765.347 419.3797032671211 765.347 418.551 C 765.347 417.7225728752538 766.0185728752538 417.051 766.847 417.051 C 767.6754271247462 417.051 768.347 417.7225728752538 768.347 418.551 z M 787.315 418.551 C 787.315 419.3794271247462 786.6434271247463 420.051 785.815 420.051 C 784.9865728752538 420.051 784.315 419.3794271247462 784.315 418.551 C 784.315 417.7225728752538 784.9865728752538 417.051 785.815 417.051 C 786.6434271247463 417.051 787.315 417.7225728752538 787.315 418.551 z M 806.283 418.551 C 806.283 419.3794271247462 805.6114271247462 420.051 804.783 420.051 C 803.9545728752538 420.051 803.283 419.3794271247462 803.283 418.551 C 803.283 417.7225728752538 803.9545728752538 417.051 804.783 417.051 C 805.6114271247462 417.051 806.283 417.7225728752538 806.283 418.551 z M 825.252 418.551 C 825.252 419.3797032671211 824.5802032671211 420.0515 823.7515 420.0515 C 822.9227967328789 420.0515 822.251 419.3797032671211 822.251 418.551 C 822.251 417.7222967328789 822.9227967328789 417.0505 823.7515 417.0505 C 824.5802032671211 417.0505 825.252 417.7222967328789 825.252 418.551 z M 844.22 418.551 C 844.22 419.3797032671211 843.5482032671212 420.0515 842.7195 420.0515 C 841.8907967328789 420.0515 841.219 419.3797032671211 841.219 418.551 C 841.219 417.7225728752538 841.8905728752538 417.051 842.719 417.051 C 843.5474271247463 417.051 844.219 417.7225728752538 844.219 418.551 z M 863.188 418.551 C 863.188 419.379979409496 862.515979409496 420.05199999999996 861.687 420.05199999999996 C 860.858020590504 420.05199999999996 860.186 419.379979409496 860.186 418.551 C 860.186 417.7222967328789 860.8577967328789 417.0505 861.6865 417.0505 C 862.5152032671211 417.0505 863.187 417.7222967328789 863.187 418.551 z M 882.155 418.551 C 882.155 419.3794271247462 881.4834271247462 420.051 880.655 420.051 C 879.8265728752538 420.051 879.155 419.3794271247462 879.155 418.551 C 879.155 417.7225728752538 879.8265728752538 417.051 880.655 417.051 C 881.4834271247462 417.051 882.155 417.7225728752538 882.155 418.551 z M 901.123 418.551 C 901.123 419.3797032671211 900.4512032671212 420.0515 899.6225000000001 420.0515 C 898.793796732879 420.0515 898.1220000000001 419.3797032671211 898.1220000000001 418.551 C 898.1220000000001 417.7222967328789 898.793796732879 417.0505 899.6225000000001 417.0505 C 900.4512032671212 417.0505 901.123 417.7222967328789 901.123 418.551 z M 692.477 437.774 C 692.4767238576251 438.6027032671211 691.8047032671211 439.2742761423749 690.976 439.274 C 690.1472967328789 439.2737238576251 689.4757238576251 438.60170326712114 689.476 437.773 C 689.4762761423749 436.9445728752538 690.1480728752538 436.2732238576251 690.9765 436.2735 C 691.8049271247462 436.2737761423749 692.4762761423749 436.9455728752538 692.476 437.774 z M 711.444 437.774 C 711.4437238576251 438.6024271247462 710.7719271247462 439.2737761423749 709.9435 439.2735 C 709.1150728752538 439.2732238576251 708.4437238576251 438.60142712474624 708.444 437.773 C 708.4442761423749 436.9445728752538 709.1160728752537 436.2732238576251 709.9445 436.2735 C 710.7729271247462 436.2737761423749 711.4442761423749 436.9455728752538 711.444 437.774 z M 730.412 437.774 C 730.4117238576251 438.6027032671211 729.7397032671212 439.2742761423749 728.9110000000001 439.274 C 728.082296732879 439.2737238576251 727.4107238576252 438.60170326712114 727.4110000000001 437.773 C 727.411276142375 436.9442967328789 728.0832967328789 436.2727238576251 728.912 436.273 C 729.7407032671211 436.2732761423749 730.4122761423749 436.9452967328789 730.412 437.774 z M 749.38 437.774 C 749.3797238576251 438.6027032671211 748.7077032671211 439.2742761423749 747.879 439.274 C 747.0502967328789 439.2737238576251 746.3787238576251 438.60170326712114 746.379 437.773 C 746.3792761423749 436.9445728752538 747.0510728752538 436.2732238576251 747.8795 436.2735 C 748.7079271247462 436.2737761423749 749.3792761423749 436.9455728752538 749.379 437.774 z M 768.348 437.774 C 768.347723857625 438.6027032671211 767.6757032671211 439.2742761423749 766.847 439.274 C 766.0182967328789 439.2737238576251 765.3467238576251 438.60170326712114 765.347 437.773 C 765.3472761423749 436.9445728752538 766.0190728752538 436.2732238576251 766.8475 436.2735 C 767.6759271247462 436.2737761423749 768.3472761423749 436.9455728752538 768.347 437.774 z M 787.315 437.774 C 787.315 438.6024271247462 786.6434271247463 439.274 785.815 439.274 C 784.9865728752538 439.274 784.315 438.6024271247462 784.315 437.774 C 784.315 436.9455728752538 784.9865728752538 436.274 785.815 436.274 C 786.6434271247463 436.274 787.315 436.9455728752538 787.315 437.774 z M 806.283 437.774 C 806.283 438.6024271247462 805.6114271247462 439.274 804.783 439.274 C 803.9545728752538 439.274 803.283 438.6024271247462 803.283 437.774 C 803.283 436.9455728752538 803.9545728752538 436.274 804.783 436.274 C 805.6114271247462 436.274 806.283 436.9455728752538 806.283 437.774 z M 825.252 437.774 C 825.251723857625 438.6027032671211 824.5797032671211 439.2742761423749 823.751 439.274 C 822.9222967328789 439.2737238576251 822.2507238576251 438.60170326712114 822.251 437.773 C 822.2512761423749 436.9442967328789 822.9232967328788 436.2727238576251 823.752 436.273 C 824.5807032671211 436.2732761423749 825.2522761423749 436.9452967328789 825.252 437.774 z M 844.22 437.774 C 844.2197238576251 438.6027032671211 843.5477032671212 439.2742761423749 842.719 439.274 C 841.8902967328789 439.2737238576251 841.2187238576252 438.60170326712114 841.219 437.773 C 841.219276142375 436.9445728752538 841.8910728752538 436.2732238576251 842.7195 436.2735 C 843.5479271247463 436.2737761423749 844.219276142375 436.9455728752538 844.219 437.774 z M 863.188 437.774 C 863.1877238576251 438.602979409496 862.515479409496 439.2747761423749 861.6865 439.2745 C 860.857520590504 439.2742238576251 860.1857238576251 438.60197940949604 860.186 437.773 C 860.1862761423749 436.9442967328789 860.8582967328789 436.2727238576251 861.687 436.273 C 862.5157032671211 436.2732761423749 863.1872761423749 436.9452967328789 863.187 437.774 z M 882.155 437.774 C 882.1547238576251 438.6024271247462 881.4829271247462 439.2737761423749 880.6545 439.2735 C 879.8260728752538 439.2732238576251 879.1547238576251 438.60142712474624 879.155 437.773 C 879.1552761423749 436.9445728752538 879.8270728752537 436.2732238576251 880.6555 436.2735 C 881.4839271247462 436.2737761423749 882.1552761423749 436.9455728752538 882.155 437.774 z M 901.123 437.774 C 901.1227238576251 438.6027032671211 900.4507032671212 439.2742761423749 899.6220000000001 439.274 C 898.793296732879 439.2737238576251 898.1217238576252 438.60170326712114 898.1220000000001 437.773 C 898.122276142375 436.9442967328789 898.7942967328789 436.2727238576251 899.623 436.273 C 900.4517032671212 436.2732761423749 901.123276142375 436.9452967328789 901.123 437.774 z M 692.477 456.998 C 692.4767238576251 457.8267032671211 691.8047032671211 458.4982761423749 690.976 458.498 C 690.1472967328789 458.4977238576251 689.4757238576251 457.8257032671211 689.476 456.997 C 689.476 456.1685728752538 690.1475728752538 455.497 690.976 455.497 C 691.8044271247462 455.497 692.476 456.1685728752538 692.476 456.997 z M 711.444 456.998 C 711.4437238576251 457.8264271247462 710.7719271247462 458.4977761423749 709.9435 458.4975 C 709.1150728752538 458.4972238576251 708.4437238576251 457.8254271247462 708.444 456.997 C 708.444 456.1685728752538 709.1155728752537 455.497 709.944 455.497 C 710.7724271247462 455.497 711.444 456.1685728752538 711.444 456.997 z M 730.412 456.998 C 730.4117238576251 457.8267032671211 729.7397032671212 458.4982761423749 728.9110000000001 458.498 C 728.082296732879 458.4977238576251 727.4107238576252 457.8257032671211 727.4110000000001 456.997 C 727.4110000000001 456.1682967328789 728.0827967328789 455.4965 728.9115 455.4965 C 729.7402032671212 455.4965 730.412 456.1682967328789 730.412 456.997 z M 749.38 456.998 C 749.3797238576251 457.8267032671211 748.7077032671211 458.4982761423749 747.879 458.498 C 747.0502967328789 458.4977238576251 746.3787238576251 457.8257032671211 746.379 456.997 C 746.379 456.1685728752538 747.0505728752538 455.497 747.879 455.497 C 748.7074271247462 455.497 749.379 456.1685728752538 749.379 456.997 z M 768.348 456.998 C 768.347723857625 457.8267032671211 767.6757032671211 458.4982761423749 766.847 458.498 C 766.0182967328789 458.4977238576251 765.3467238576251 457.8257032671211 765.347 456.997 C 765.347 456.1685728752538 766.0185728752538 455.497 766.847 455.497 C 767.6754271247462 455.497 768.347 456.1685728752538 768.347 456.997 z M 787.315 456.998 C 787.315 457.8264271247462 786.6434271247463 458.498 785.815 458.498 C 784.9865728752538 458.498 784.315 457.8264271247462 784.315 456.998 C 784.315 456.1695728752538 784.9865728752538 455.498 785.815 455.498 C 786.6434271247463 455.498 787.315 456.1695728752538 787.315 456.998 z M 806.283 456.998 C 806.283 457.8264271247462 805.6114271247462 458.498 804.783 458.498 C 803.9545728752538 458.498 803.283 457.8264271247462 803.283 456.998 C 803.283 456.1695728752538 803.9545728752538 455.498 804.783 455.498 C 805.6114271247462 455.498 806.283 456.1695728752538 806.283 456.998 z M 825.252 456.998 C 825.251723857625 457.8267032671211 824.5797032671211 458.4982761423749 823.751 458.498 C 822.9222967328789 458.4977238576251 822.2507238576251 457.8257032671211 822.251 456.997 C 822.251 456.1682967328789 822.9227967328789 455.4965 823.7515 455.4965 C 824.5802032671211 455.4965 825.252 456.1682967328789 825.252 456.997 z M 844.22 456.998 C 844.2197238576251 457.8267032671211 843.5477032671212 458.4982761423749 842.719 458.498 C 841.8902967328789 458.4977238576251 841.2187238576252 457.8257032671211 841.219 456.997 C 841.219 456.1685728752538 841.8905728752538 455.497 842.719 455.497 C 843.5474271247463 455.497 844.219 456.1685728752538 844.219 456.997 z M 863.188 456.998 C 863.1877238576251 457.826979409496 862.515479409496 458.4987761423749 861.6865 458.4985 C 860.857520590504 458.4982238576251 860.1857238576251 457.82597940949603 860.186 456.997 C 860.186 456.1682967328789 860.8577967328789 455.4965 861.6865 455.4965 C 862.5152032671211 455.4965 863.187 456.1682967328789 863.187 456.997 z M 882.155 456.998 C 882.1547238576251 457.8264271247462 881.4829271247462 458.4977761423749 880.6545 458.4975 C 879.8260728752538 458.4972238576251 879.1547238576251 457.8254271247462 879.155 456.997 C 879.155 456.1685728752538 879.8265728752538 455.497 880.655 455.497 C 881.4834271247462 455.497 882.155 456.1685728752538 882.155 456.997 z M 901.123 456.998 C 901.1227238576251 457.8267032671211 900.4507032671212 458.4982761423749 899.6220000000001 458.498 C 898.793296732879 458.4977238576251 898.1217238576252 457.8257032671211 898.1220000000001 456.997 C 898.1220000000001 456.1682967328789 898.793796732879 455.4965 899.6225000000001 455.4965 C 900.4512032671212 455.4965 901.123 456.1682967328789 901.123 456.997 z M 692.477 476.22 C 692.477 477.04870326712114 691.8052032671211 477.7205 690.9765 477.7205 C 690.1477967328789 477.7205 689.476 477.04870326712114 689.476 476.22 C 689.476 475.3915728752538 690.1475728752538 474.72 690.976 474.72 C 691.8044271247462 474.72 692.476 475.3915728752538 692.476 476.22 z M 711.444 476.22 C 711.444 477.04842712474624 710.7724271247462 477.72 709.944 477.72 C 709.1155728752537 477.72 708.444 477.04842712474624 708.444 476.22 C 708.444 475.3915728752538 709.1155728752537 474.72 709.944 474.72 C 710.7724271247462 474.72 711.444 475.3915728752538 711.444 476.22 z M 730.412 476.22 C 730.412 477.04870326712114 729.7402032671212 477.7205 728.9115 477.7205 C 728.0827967328789 477.7205 727.4110000000001 477.04870326712114 727.4110000000001 476.22 C 727.4110000000001 475.3912967328789 728.0827967328789 474.71950000000004 728.9115 474.71950000000004 C 729.7402032671212 474.71950000000004 730.412 475.3912967328789 730.412 476.22 z M 749.38 476.22 C 749.38 477.04870326712114 748.7082032671211 477.7205 747.8795 477.7205 C 747.0507967328789 477.7205 746.379 477.04870326712114 746.379 476.22 C 746.379 475.3915728752538 747.0505728752538 474.72 747.879 474.72 C 748.7074271247462 474.72 749.379 475.3915728752538 749.379 476.22 z M 768.348 476.22 C 768.348 477.04870326712114 767.6762032671211 477.7205 766.8475 477.7205 C 766.0187967328789 477.7205 765.347 477.04870326712114 765.347 476.22 C 765.347 475.3915728752538 766.0185728752538 474.72 766.847 474.72 C 767.6754271247462 474.72 768.347 475.3915728752538 768.347 476.22 z M 787.315 476.22 C 787.315 477.04842712474624 786.6434271247463 477.72 785.815 477.72 C 784.9865728752538 477.72 784.315 477.04842712474624 784.315 476.22 C 784.315 475.3915728752538 784.9865728752538 474.72 785.815 474.72 C 786.6434271247463 474.72 787.315 475.3915728752538 787.315 476.22 z M 806.283 476.22 C 806.283 477.04842712474624 805.6114271247462 477.72 804.783 477.72 C 803.9545728752538 477.72 803.283 477.04842712474624 803.283 476.22 C 803.283 475.3915728752538 803.9545728752538 474.72 804.783 474.72 C 805.6114271247462 474.72 806.283 475.3915728752538 806.283 476.22 z M 825.252 476.22 C 825.252 477.04870326712114 824.5802032671211 477.7205 823.7515 477.7205 C 822.9227967328789 477.7205 822.251 477.04870326712114 822.251 476.22 C 822.251 475.3912967328789 822.9227967328789 474.71950000000004 823.7515 474.71950000000004 C 824.5802032671211 474.71950000000004 825.252 475.3912967328789 825.252 476.22 z M 844.22 476.22 C 844.22 477.04870326712114 843.5482032671212 477.7205 842.7195 477.7205 C 841.8907967328789 477.7205 841.219 477.04870326712114 841.219 476.22 C 841.219 475.3915728752538 841.8905728752538 474.72 842.719 474.72 C 843.5474271247463 474.72 844.219 475.3915728752538 844.219 476.22 z M 863.188 476.22 C 863.188 477.04897940949604 862.515979409496 477.721 861.687 477.721 C 860.858020590504 477.721 860.186 477.04897940949604 860.186 476.22 C 860.186 475.3912967328789 860.8577967328789 474.71950000000004 861.6865 474.71950000000004 C 862.5152032671211 474.71950000000004 863.187 475.3912967328789 863.187 476.22 z M 882.155 476.22 C 882.155 477.04842712474624 881.4834271247462 477.72 880.655 477.72 C 879.8265728752538 477.72 879.155 477.04842712474624 879.155 476.22 C 879.155 475.3915728752538 879.8265728752538 474.72 880.655 474.72 C 881.4834271247462 474.72 882.155 475.3915728752538 882.155 476.22 z M 901.123 476.22 C 901.123 477.04870326712114 900.4512032671212 477.7205 899.6225000000001 477.7205 C 898.793796732879 477.7205 898.1220000000001 477.04870326712114 898.1220000000001 476.22 C 898.1220000000001 475.3912967328789 898.793796732879 474.71950000000004 899.6225000000001 474.71950000000004 C 900.4512032671212 474.71950000000004 901.123 475.3912967328789 901.123 476.22 z M 692.477 495.443 C 692.477 496.2714271247462 691.8054271247462 496.943 690.977 496.943 C 690.1485728752538 496.943 689.477 496.2714271247462 689.477 495.443 C 689.477 494.61457287525377 690.1485728752538 493.943 690.977 493.943 C 691.8054271247462 493.943 692.477 494.61457287525377 692.477 495.443 z M 711.444 495.443 C 711.444 496.2714271247462 710.7724271247462 496.943 709.944 496.943 C 709.1155728752537 496.943 708.444 496.2714271247462 708.444 495.443 C 708.444 494.61457287525377 709.1155728752537 493.943 709.944 493.943 C 710.7724271247462 493.943 711.444 494.61457287525377 711.444 495.443 z M 730.412 495.443 C 730.412 496.2714271247462 729.7404271247462 496.943 728.912 496.943 C 728.0835728752538 496.943 727.412 496.2714271247462 727.412 495.443 C 727.412 494.61457287525377 728.0835728752538 493.943 728.912 493.943 C 729.7404271247462 493.943 730.412 494.61457287525377 730.412 495.443 z M 749.38 495.443 C 749.38 496.2714271247462 748.7084271247462 496.943 747.88 496.943 C 747.0515728752538 496.943 746.38 496.2714271247462 746.38 495.443 C 746.38 494.61457287525377 747.0515728752538 493.943 747.88 493.943 C 748.7084271247462 493.943 749.38 494.61457287525377 749.38 495.443 z M 768.348 495.443 C 768.348 496.2714271247462 767.6764271247462 496.943 766.848 496.943 C 766.0195728752537 496.943 765.348 496.2714271247462 765.348 495.443 C 765.348 494.61457287525377 766.0195728752537 493.943 766.848 493.943 C 767.6764271247462 493.943 768.348 494.61457287525377 768.348 495.443 z M 787.315 495.443 C 787.3352241977972 495.99159286870025 787.0541526204315 496.5074122037166 786.5822041083848 496.7878186154518 C 786.1102555963381 497.06822502718694 785.5228283416186 497.0684209668983 785.0506928722941 496.78832945976 C 784.5785574029695 496.5082379526217 784.2971417792232 495.99260623841957 784.317 495.44399999999996 C 784.3461965617062 494.6374113296202 785.0084010572555 493.9985301425098 785.8155179322629 493.99826092407255 C 786.6226348072704 493.9979917056353 787.2852653603472 494.6364309864586 787.315 495.443 z M 806.283 495.443 C 806.3032241977971 495.99159286870025 806.0221526204315 496.5074122037166 805.5502041083847 496.7878186154518 C 805.0782555963381 497.06822502718694 804.4908283416186 497.0684209668983 804.0186928722941 496.78832945976 C 803.5465574029695 496.5082379526217 803.2651417792232 495.99260623841957 803.285 495.44399999999996 C 803.3141965617061 494.6374113296202 803.9764010572554 493.9985301425098 804.7835179322628 493.99826092407255 C 805.5906348072704 493.9979917056353 806.2532653603472 494.6364309864586 806.283 495.443 z M 825.252 495.443 C 825.252 496.2714271247462 824.5804271247462 496.943 823.752 496.943 C 822.9235728752537 496.943 822.252 496.2714271247462 822.252 495.443 C 822.252 494.61457287525377 822.9235728752537 493.943 823.752 493.943 C 824.5804271247462 493.943 825.252 494.61457287525377 825.252 495.443 z M 844.22 495.443 C 844.22 496.2714271247462 843.5484271247462 496.943 842.72 496.943 C 841.8915728752538 496.943 841.22 496.2714271247462 841.22 495.443 C 841.22 494.61457287525377 841.8915728752538 493.943 842.72 493.943 C 843.5484271247462 493.943 844.22 494.61457287525377 844.22 495.443 z M 863.188 495.443 C 863.188 496.2714271247462 862.5164271247462 496.943 861.688 496.943 C 860.8595728752538 496.943 860.188 496.2714271247462 860.188 495.443 C 860.188 494.61457287525377 860.8595728752538 493.943 861.688 493.943 C 862.5164271247462 493.943 863.188 494.61457287525377 863.188 495.443 z M 882.155 495.443 C 882.155 496.2714271247462 881.4834271247462 496.943 880.655 496.943 C 879.8265728752538 496.943 879.155 496.2714271247462 879.155 495.443 C 879.155 494.61457287525377 879.8265728752538 493.943 880.655 493.943 C 881.4834271247462 493.943 882.155 494.61457287525377 882.155 495.443 z M 901.123 495.443 C 901.123 496.2714271247462 900.4514271247463 496.943 899.623 496.943 C 898.7945728752538 496.943 898.123 496.2714271247462 898.123 495.443 C 898.123 494.61457287525377 898.7945728752538 493.943 899.623 493.943 C 900.4514271247463 493.943 901.123 494.61457287525377 901.123 495.443 z M 692.477 514.667 C 692.4767238576251 515.4957032671211 691.8047032671211 516.1672761423749 690.976 516.167 C 690.1472967328789 516.1667238576251 689.4757238576251 515.4947032671212 689.476 514.666 C 689.476 513.8375728752538 690.1475728752538 513.166 690.976 513.166 C 691.8044271247462 513.166 692.476 513.8375728752538 692.476 514.666 z M 711.444 514.667 C 711.4437238576251 515.4954271247462 710.7719271247462 516.1667761423749 709.9435 516.1665 C 709.1150728752538 516.1662238576251 708.4437238576251 515.4944271247463 708.444 514.666 C 708.444 513.8375728752538 709.1155728752537 513.166 709.944 513.166 C 710.7724271247462 513.166 711.444 513.8375728752538 711.444 514.666 z M 730.412 514.667 C 730.4117238576251 515.4957032671211 729.7397032671212 516.1672761423749 728.9110000000001 516.167 C 728.082296732879 516.1667238576251 727.4107238576252 515.4947032671212 727.4110000000001 514.666 C 727.4110000000001 513.8372967328789 728.0827967328789 513.1655000000001 728.9115 513.1655000000001 C 729.7402032671212 513.1655000000001 730.412 513.8372967328789 730.412 514.666 z M 749.38 514.667 C 749.3797238576251 515.4957032671211 748.7077032671211 516.1672761423749 747.879 516.167 C 747.0502967328789 516.1667238576251 746.3787238576251 515.4947032671212 746.379 514.666 C 746.379 513.8375728752538 747.0505728752538 513.166 747.879 513.166 C 748.7074271247462 513.166 749.379 513.8375728752538 749.379 514.666 z M 768.348 514.667 C 768.347723857625 515.4957032671211 767.6757032671211 516.1672761423749 766.847 516.167 C 766.0182967328789 516.1667238576251 765.3467238576251 515.4947032671212 765.347 514.666 C 765.347 513.8375728752538 766.0185728752538 513.166 766.847 513.166 C 767.6754271247462 513.166 768.347 513.8375728752538 768.347 514.666 z M 787.315 514.667 C 787.315 515.4954271247462 786.6434271247463 516.167 785.815 516.167 C 784.9865728752538 516.167 784.315 515.4954271247462 784.315 514.667 C 784.315 513.8385728752538 784.9865728752538 513.167 785.815 513.167 C 786.6434271247463 513.167 787.315 513.8385728752538 787.315 514.667 z M 806.283 514.667 C 806.283 515.4954271247462 805.6114271247462 516.167 804.783 516.167 C 803.9545728752538 516.167 803.283 515.4954271247462 803.283 514.667 C 803.283 513.8385728752538 803.9545728752538 513.167 804.783 513.167 C 805.6114271247462 513.167 806.283 513.8385728752538 806.283 514.667 z M 825.252 514.667 C 825.251723857625 515.4957032671211 824.5797032671211 516.1672761423749 823.751 516.167 C 822.9222967328789 516.1667238576251 822.2507238576251 515.4947032671212 822.251 514.666 C 822.251 513.8372967328789 822.9227967328789 513.1655000000001 823.7515 513.1655000000001 C 824.5802032671211 513.1655000000001 825.252 513.8372967328789 825.252 514.666 z M 844.22 514.667 C 844.2197238576251 515.4957032671211 843.5477032671212 516.1672761423749 842.719 516.167 C 841.8902967328789 516.1667238576251 841.2187238576252 515.4947032671212 841.219 514.666 C 841.219 513.8375728752538 841.8905728752538 513.166 842.719 513.166 C 843.5474271247463 513.166 844.219 513.8375728752538 844.219 514.666 z M 863.188 514.667 C 863.1877238576251 515.495979409496 862.515479409496 516.1677761423749 861.6865 516.1675 C 860.857520590504 516.1672238576251 860.1857238576251 515.4949794094961 860.186 514.666 C 860.186 513.8372967328789 860.8577967328789 513.1655000000001 861.6865 513.1655000000001 C 862.5152032671211 513.1655000000001 863.187 513.8372967328789 863.187 514.666 z M 882.155 514.667 C 882.1547238576251 515.4954271247462 881.4829271247462 516.1667761423749 880.6545 516.1665 C 879.8260728752538 516.1662238576251 879.1547238576251 515.4944271247463 879.155 514.666 C 879.155 513.8375728752538 879.8265728752538 513.166 880.655 513.166 C 881.4834271247462 513.166 882.155 513.8375728752538 882.155 514.666 z M 901.123 514.667 C 901.1227238576251 515.4957032671211 900.4507032671212 516.1672761423749 899.6220000000001 516.167 C 898.793296732879 516.1667238576251 898.1217238576252 515.4947032671212 898.1220000000001 514.666 C 898.1220000000001 513.8372967328789 898.793796732879 513.1655000000001 899.6225000000001 513.1655000000001 C 900.4512032671212 513.1655000000001 901.123 513.8372967328789 901.123 514.666 z M 692.477 533.89 C 692.477 534.7184271247462 691.8054271247462 535.39 690.977 535.39 C 690.1485728752538 535.39 689.477 534.7184271247462 689.477 533.89 C 689.477 533.0615728752538 690.1485728752538 532.39 690.977 532.39 C 691.8054271247462 532.39 692.477 533.0615728752538 692.477 533.89 z M 711.444 533.89 C 711.444 534.7184271247462 710.7724271247462 535.39 709.944 535.39 C 709.1155728752537 535.39 708.444 534.7184271247462 708.444 533.89 C 708.444 533.0615728752538 709.1155728752537 532.39 709.944 532.39 C 710.7724271247462 532.39 711.444 533.0615728752538 711.444 533.89 z M 730.412 533.89 C 730.412 534.7184271247462 729.7404271247462 535.39 728.912 535.39 C 728.0835728752538 535.39 727.412 534.7184271247462 727.412 533.89 C 727.412 533.0615728752538 728.0835728752538 532.39 728.912 532.39 C 729.7404271247462 532.39 730.412 533.0615728752538 730.412 533.89 z M 749.38 533.89 C 749.38 534.7184271247462 748.7084271247462 535.39 747.88 535.39 C 747.0515728752538 535.39 746.38 534.7184271247462 746.38 533.89 C 746.38 533.0615728752538 747.0515728752538 532.39 747.88 532.39 C 748.7084271247462 532.39 749.38 533.0615728752538 749.38 533.89 z M 768.348 533.89 C 768.348 534.7184271247462 767.6764271247462 535.39 766.848 535.39 C 766.0195728752537 535.39 765.348 534.7184271247462 765.348 533.89 C 765.348 533.0615728752538 766.0195728752537 532.39 766.848 532.39 C 767.6764271247462 532.39 768.348 533.0615728752538 768.348 533.89 z M 787.315 533.89 C 787.3350420657104 534.4386000990219 787.0537986593699 534.9543265130499 786.5817563153327 535.234576006324 C 786.1097139712953 535.5148254995983 785.5222860287048 535.5148254995983 785.0502436846674 535.234576006324 C 784.5782013406301 534.9543265130499 784.2969579342897 534.4386000990219 784.317 533.89 C 784.3464667982144 533.0834220428223 785.008883965466 532.4447631262797 785.816 532.4447631262797 C 786.6231160345341 532.4447631262797 787.2855332017857 533.0834220428223 787.315 533.89 z M 806.283 533.89 C 806.3030420657103 534.4386000990219 806.0217986593699 534.9543265130499 805.5497563153326 535.234576006324 C 805.0777139712952 535.5148254995983 804.4902860287048 535.5148254995983 804.0182436846674 535.234576006324 C 803.5462013406301 534.9543265130499 803.2649579342897 534.4386000990219 803.285 533.89 C 803.3144667982143 533.0834220428223 803.976883965466 532.4447631262797 804.784 532.4447631262797 C 805.591116034534 532.4447631262797 806.2535332017857 533.0834220428223 806.283 533.89 z M 825.252 533.89 C 825.252 534.7184271247462 824.5804271247462 535.39 823.752 535.39 C 822.9235728752537 535.39 822.252 534.7184271247462 822.252 533.89 C 822.252 533.0615728752538 822.9235728752537 532.39 823.752 532.39 C 824.5804271247462 532.39 825.252 533.0615728752538 825.252 533.89 z M 844.22 533.89 C 844.22 534.7184271247462 843.5484271247462 535.39 842.72 535.39 C 841.8915728752538 535.39 841.22 534.7184271247462 841.22 533.89 C 841.22 533.0615728752538 841.8915728752538 532.39 842.72 532.39 C 843.5484271247462 532.39 844.22 533.0615728752538 844.22 533.89 z M 863.188 533.89 C 863.188 534.7184271247462 862.5164271247462 535.39 861.688 535.39 C 860.8595728752538 535.39 860.188 534.7184271247462 860.188 533.89 C 860.188 533.0615728752538 860.8595728752538 532.39 861.688 532.39 C 862.5164271247462 532.39 863.188 533.0615728752538 863.188 533.89 z M 882.155 533.89 C 882.155 534.7184271247462 881.4834271247462 535.39 880.655 535.39 C 879.8265728752538 535.39 879.155 534.7184271247462 879.155 533.89 C 879.155 533.0615728752538 879.8265728752538 532.39 880.655 532.39 C 881.4834271247462 532.39 882.155 533.0615728752538 882.155 533.89 z M 901.123 533.89 C 901.123 534.7184271247462 900.4514271247463 535.39 899.623 535.39 C 898.7945728752538 535.39 898.123 534.7184271247462 898.123 533.89 C 898.123 533.0615728752538 898.7945728752538 532.39 899.623 532.39 C 900.4514271247463 532.39 901.123 533.0615728752538 901.123 533.89 z M 692.477 553.113 C 692.4767238576251 553.9417032671212 691.8047032671211 554.613276142375 690.976 554.613 C 690.1472967328789 554.6127238576252 689.4757238576251 553.9407032671212 689.476 553.1120000000001 C 689.4762761423749 552.2835728752539 690.1480728752538 551.6122238576252 690.9765 551.6125000000001 C 691.8049271247462 551.612776142375 692.4762761423749 552.2845728752538 692.476 553.113 z M 711.444 553.113 C 711.4437238576251 553.9414271247463 710.7719271247462 554.612776142375 709.9435 554.6125000000001 C 709.1150728752538 554.6122238576252 708.4437238576251 553.9404271247463 708.444 553.1120000000001 C 708.4442761423749 552.2835728752539 709.1160728752537 551.6122238576252 709.9445 551.6125000000001 C 710.7729271247462 551.612776142375 711.4442761423749 552.2845728752538 711.444 553.113 z M 730.412 553.113 C 730.4117238576251 553.9417032671212 729.7397032671212 554.613276142375 728.9110000000001 554.613 C 728.082296732879 554.6127238576252 727.4107238576252 553.9407032671212 727.4110000000001 553.1120000000001 C 727.411276142375 552.283296732879 728.0832967328789 551.6117238576252 728.912 551.6120000000001 C 729.7407032671211 551.612276142375 730.4122761423749 552.2842967328789 730.412 553.113 z M 749.38 553.113 C 749.3797238576251 553.9417032671212 748.7077032671211 554.613276142375 747.879 554.613 C 747.0502967328789 554.6127238576252 746.3787238576251 553.9407032671212 746.379 553.1120000000001 C 746.3792761423749 552.2835728752539 747.0510728752538 551.6122238576252 747.8795 551.6125000000001 C 748.7079271247462 551.612776142375 749.3792761423749 552.2845728752538 749.379 553.113 z M 768.348 553.113 C 768.347723857625 553.9417032671212 767.6757032671211 554.613276142375 766.847 554.613 C 766.0182967328789 554.6127238576252 765.3467238576251 553.9407032671212 765.347 553.1120000000001 C 765.3472761423749 552.2835728752539 766.0190728752538 551.6122238576252 766.8475 551.6125000000001 C 767.6759271247462 551.612776142375 768.3472761423749 552.2845728752538 768.347 553.113 z M 787.315 553.113 C 787.315 553.9414271247463 786.6434271247463 554.613 785.815 554.613 C 784.9865728752538 554.613 784.315 553.9414271247463 784.315 553.113 C 784.315 552.2845728752538 784.9865728752538 551.613 785.815 551.613 C 786.6434271247463 551.613 787.315 552.2845728752538 787.315 553.113 z M 806.283 553.113 C 806.283 553.9414271247463 805.6114271247462 554.613 804.783 554.613 C 803.9545728752538 554.613 803.283 553.9414271247463 803.283 553.113 C 803.283 552.2845728752538 803.9545728752538 551.613 804.783 551.613 C 805.6114271247462 551.613 806.283 552.2845728752538 806.283 553.113 z M 825.252 553.113 C 825.251723857625 553.9417032671212 824.5797032671211 554.613276142375 823.751 554.613 C 822.9222967328789 554.6127238576252 822.2507238576251 553.9407032671212 822.251 553.1120000000001 C 822.2512761423749 552.283296732879 822.9232967328788 551.6117238576252 823.752 551.6120000000001 C 824.5807032671211 551.612276142375 825.2522761423749 552.2842967328789 825.252 553.113 z M 844.22 553.113 C 844.2197238576251 553.9417032671212 843.5477032671212 554.613276142375 842.719 554.613 C 841.8902967328789 554.6127238576252 841.2187238576252 553.9407032671212 841.219 553.1120000000001 C 841.219276142375 552.2835728752539 841.8910728752538 551.6122238576252 842.7195 551.6125000000001 C 843.5479271247463 551.612776142375 844.219276142375 552.2845728752538 844.219 553.113 z M 863.188 553.113 C 863.1877238576251 553.9419794094961 862.515479409496 554.613776142375 861.6865 554.6135 C 860.857520590504 554.6132238576251 860.1857238576251 553.9409794094961 860.186 553.1120000000001 C 860.1862761423749 552.283296732879 860.8582967328789 551.6117238576252 861.687 551.6120000000001 C 862.5157032671211 551.612276142375 863.1872761423749 552.2842967328789 863.187 553.113 z M 882.155 553.113 C 882.1547238576251 553.9414271247463 881.4829271247462 554.612776142375 880.6545 554.6125000000001 C 879.8260728752538 554.6122238576252 879.1547238576251 553.9404271247463 879.155 553.1120000000001 C 879.1552761423749 552.2835728752539 879.8270728752537 551.6122238576252 880.6555 551.6125000000001 C 881.4839271247462 551.612776142375 882.1552761423749 552.2845728752538 882.155 553.113 z M 901.123 553.113 C 901.1227238576251 553.9417032671212 900.4507032671212 554.613276142375 899.6220000000001 554.613 C 898.793296732879 554.6127238576252 898.1217238576252 553.9407032671212 898.1220000000001 553.1120000000001 C 898.122276142375 552.283296732879 898.7942967328789 551.6117238576252 899.623 551.6120000000001 C 900.4517032671212 551.612276142375 901.123276142375 552.2842967328789 901.123 553.113 z M 692.477 572.336 C 692.4767238576251 573.1647032671211 691.8047032671211 573.8362761423749 690.976 573.836 C 690.1472967328789 573.8357238576251 689.4757238576251 573.1637032671212 689.476 572.335 C 689.476 571.5065728752538 690.1475728752538 570.835 690.976 570.835 C 691.8044271247462 570.835 692.476 571.5065728752538 692.476 572.335 z M 711.444 572.336 C 711.4437238576251 573.1644271247462 710.7719271247462 573.8357761423749 709.9435 573.8355 C 709.1150728752538 573.8352238576251 708.4437238576251 573.1634271247462 708.444 572.335 C 708.444 571.5065728752538 709.1155728752537 570.835 709.944 570.835 C 710.7724271247462 570.835 711.444 571.5065728752538 711.444 572.335 z M 730.412 572.336 C 730.4117238576251 573.1647032671211 729.7397032671212 573.8362761423749 728.9110000000001 573.836 C 728.082296732879 573.8357238576251 727.4107238576252 573.1637032671212 727.4110000000001 572.335 C 727.4110000000001 571.5062967328789 728.0827967328789 570.8345 728.9115 570.8345 C 729.7402032671212 570.8345 730.412 571.5062967328789 730.412 572.335 z M 749.38 572.336 C 749.3797238576251 573.1647032671211 748.7077032671211 573.8362761423749 747.879 573.836 C 747.0502967328789 573.8357238576251 746.3787238576251 573.1637032671212 746.379 572.335 C 746.379 571.5065728752538 747.0505728752538 570.835 747.879 570.835 C 748.7074271247462 570.835 749.379 571.5065728752538 749.379 572.335 z M 768.348 572.336 C 768.347723857625 573.1647032671211 767.6757032671211 573.8362761423749 766.847 573.836 C 766.0182967328789 573.8357238576251 765.3467238576251 573.1637032671212 765.347 572.335 C 765.347 571.5065728752538 766.0185728752538 570.835 766.847 570.835 C 767.6754271247462 570.835 768.347 571.5065728752538 768.347 572.335 z M 787.315 572.336 C 787.315 573.1644271247462 786.6434271247463 573.836 785.815 573.836 C 784.9865728752538 573.836 784.315 573.1644271247462 784.315 572.336 C 784.315 571.5075728752538 784.9865728752538 570.836 785.815 570.836 C 786.6434271247463 570.836 787.315 571.5075728752538 787.315 572.336 z M 806.283 572.336 C 806.283 573.1644271247462 805.6114271247462 573.836 804.783 573.836 C 803.9545728752538 573.836 803.283 573.1644271247462 803.283 572.336 C 803.283 571.5075728752538 803.9545728752538 570.836 804.783 570.836 C 805.6114271247462 570.836 806.283 571.5075728752538 806.283 572.336 z M 825.252 572.336 C 825.251723857625 573.1647032671211 824.5797032671211 573.8362761423749 823.751 573.836 C 822.9222967328789 573.8357238576251 822.2507238576251 573.1637032671212 822.251 572.335 C 822.251 571.5062967328789 822.9227967328789 570.8345 823.7515 570.8345 C 824.5802032671211 570.8345 825.252 571.5062967328789 825.252 572.335 z M 844.22 572.336 C 844.2197238576251 573.1647032671211 843.5477032671212 573.8362761423749 842.719 573.836 C 841.8902967328789 573.8357238576251 841.2187238576252 573.1637032671212 841.219 572.335 C 841.219 571.5065728752538 841.8905728752538 570.835 842.719 570.835 C 843.5474271247463 570.835 844.219 571.5065728752538 844.219 572.335 z M 863.188 572.336 C 863.1877238576251 573.164979409496 862.515479409496 573.8367761423749 861.6865 573.8365 C 860.857520590504 573.8362238576251 860.1857238576251 573.163979409496 860.186 572.335 C 860.186 571.5062967328789 860.8577967328789 570.8345 861.6865 570.8345 C 862.5152032671211 570.8345 863.187 571.5062967328789 863.187 572.335 z M 882.155 572.336 C 882.1547238576251 573.1644271247462 881.4829271247462 573.8357761423749 880.6545 573.8355 C 879.8260728752538 573.8352238576251 879.1547238576251 573.1634271247462 879.155 572.335 C 879.155 571.5065728752538 879.8265728752538 570.835 880.655 570.835 C 881.4834271247462 570.835 882.155 571.5065728752538 882.155 572.335 z M 901.123 572.336 C 901.1227238576251 573.1647032671211 900.4507032671212 573.8362761423749 899.6220000000001 573.836 C 898.793296732879 573.8357238576251 898.1217238576252 573.1637032671212 898.1220000000001 572.335 C 898.1220000000001 571.5062967328789 898.793796732879 570.8345 899.6225000000001 570.8345 C 900.4512032671212 570.8345 901.123 571.5062967328789 901.123 572.335 z M 692.477 591.558 C 692.477 592.3864271247462 691.8054271247462 593.058 690.977 593.058 C 690.1485728752538 593.058 689.477 592.3864271247462 689.477 591.558 C 689.477 590.7295728752538 690.1485728752538 590.058 690.977 590.058 C 691.8054271247462 590.058 692.477 590.7295728752538 692.477 591.558 z M 711.444 591.558 C 711.444 592.3864271247462 710.7724271247462 593.058 709.944 593.058 C 709.1155728752537 593.058 708.444 592.3864271247462 708.444 591.558 C 708.444 590.7295728752538 709.1155728752537 590.058 709.944 590.058 C 710.7724271247462 590.058 711.444 590.7295728752538 711.444 591.558 z M 730.412 591.558 C 730.412 592.3864271247462 729.7404271247462 593.058 728.912 593.058 C 728.0835728752538 593.058 727.412 592.3864271247462 727.412 591.558 C 727.412 590.7295728752538 728.0835728752538 590.058 728.912 590.058 C 729.7404271247462 590.058 730.412 590.7295728752538 730.412 591.558 z M 749.38 591.558 C 749.38 592.3864271247462 748.7084271247462 593.058 747.88 593.058 C 747.0515728752538 593.058 746.38 592.3864271247462 746.38 591.558 C 746.38 590.7295728752538 747.0515728752538 590.058 747.88 590.058 C 748.7084271247462 590.058 749.38 590.7295728752538 749.38 591.558 z M 768.348 591.558 C 768.348 592.3864271247462 767.6764271247462 593.058 766.848 593.058 C 766.0195728752537 593.058 765.348 592.3864271247462 765.348 591.558 C 765.348 590.7295728752538 766.0195728752537 590.058 766.848 590.058 C 767.6764271247462 590.058 768.348 590.7295728752538 768.348 591.558 z M 787.315 591.558 C 787.335404615742 592.1065845490331 787.0545044770955 592.622495026377 786.5826505027578 592.9030572880645 C 786.1107965284202 593.1836195497519 785.5233713374754 593.1840114277978 785.0511434507191 592.9040789738897 C 784.5789155639628 592.6241465199814 784.2973273361154 592.1086112850435 784.317 591.56 C 784.3459239280429 590.7533988490266 785.007916463468 590.1142927554384 785.8150358601181 590.1137543168817 C 786.6221552567682 590.1132158783248 787.2849999125223 590.7514381579095 787.315 591.558 z M 806.283 591.558 C 806.303404615742 592.1065845490331 806.0225044770955 592.622495026377 805.5506505027578 592.9030572880645 C 805.0787965284202 593.1836195497519 804.4913713374754 593.1840114277978 804.0191434507191 592.9040789738897 C 803.5469155639628 592.6241465199814 803.2653273361153 592.1086112850435 803.285 591.56 C 803.3139239280429 590.7533988490266 803.9759164634679 590.1142927554384 804.783035860118 590.1137543168817 C 805.5901552567682 590.1132158783248 806.2529999125222 590.7514381579095 806.283 591.558 z M 825.252 591.558 C 825.252 592.3864271247462 824.5804271247462 593.058 823.752 593.058 C 822.9235728752537 593.058 822.252 592.3864271247462 822.252 591.558 C 822.252 590.7295728752538 822.9235728752537 590.058 823.752 590.058 C 824.5804271247462 590.058 825.252 590.7295728752538 825.252 591.558 z M 844.22 591.558 C 844.22 592.3864271247462 843.5484271247462 593.058 842.72 593.058 C 841.8915728752538 593.058 841.22 592.3864271247462 841.22 591.558 C 841.22 590.7295728752538 841.8915728752538 590.058 842.72 590.058 C 843.5484271247462 590.058 844.22 590.7295728752538 844.22 591.558 z M 863.188 591.558 C 863.188 592.3864271247462 862.5164271247462 593.058 861.688 593.058 C 860.8595728752538 593.058 860.188 592.3864271247462 860.188 591.558 C 860.188 590.7295728752538 860.8595728752538 590.058 861.688 590.058 C 862.5164271247462 590.058 863.188 590.7295728752538 863.188 591.558 z M 882.155 591.558 C 882.155 592.3864271247462 881.4834271247462 593.058 880.655 593.058 C 879.8265728752538 593.058 879.155 592.3864271247462 879.155 591.558 C 879.155 590.7295728752538 879.8265728752538 590.058 880.655 590.058 C 881.4834271247462 590.058 882.155 590.7295728752538 882.155 591.558 z M 901.123 591.558 C 901.123 592.3864271247462 900.4514271247463 593.058 899.623 593.058 C 898.7945728752538 593.058 898.123 592.3864271247462 898.123 591.558 C 898.123 590.7295728752538 898.7945728752538 590.058 899.623 590.058 C 900.4514271247463 590.058 901.123 590.7295728752538 901.123 591.558 z M 692.477 610.782 C 692.4767238576251 611.6107032671212 691.8047032671211 612.2822761423749 690.976 612.282 C 690.1472967328789 612.2817238576251 689.4757238576251 611.6097032671212 689.476 610.7810000000001 C 689.476 609.9525728752538 690.1475728752538 609.2810000000001 690.976 609.2810000000001 C 691.8044271247462 609.2810000000001 692.476 609.9525728752538 692.476 610.7810000000001 z M 711.444 610.782 C 711.4437238576251 611.6104271247463 710.7719271247462 612.281776142375 709.9435 612.2815 C 709.1150728752538 612.2812238576252 708.4437238576251 611.6094271247463 708.444 610.7810000000001 C 708.444 609.9525728752538 709.1155728752537 609.2810000000001 709.944 609.2810000000001 C 710.7724271247462 609.2810000000001 711.444 609.9525728752538 711.444 610.7810000000001 z M 730.412 610.782 C 730.4117238576251 611.6107032671212 729.7397032671212 612.2822761423749 728.9110000000001 612.282 C 728.082296732879 612.2817238576251 727.4107238576252 611.6097032671212 727.4110000000001 610.7810000000001 C 727.4110000000001 609.952296732879 728.0827967328789 609.2805000000001 728.9115 609.2805000000001 C 729.7402032671212 609.2805000000001 730.412 609.952296732879 730.412 610.7810000000001 z M 749.38 610.782 C 749.3797238576251 611.6107032671212 748.7077032671211 612.2822761423749 747.879 612.282 C 747.0502967328789 612.2817238576251 746.3787238576251 611.6097032671212 746.379 610.7810000000001 C 746.379 609.9525728752538 747.0505728752538 609.2810000000001 747.879 609.2810000000001 C 748.7074271247462 609.2810000000001 749.379 609.9525728752538 749.379 610.7810000000001 z M 768.348 610.782 C 768.347723857625 611.6107032671212 767.6757032671211 612.2822761423749 766.847 612.282 C 766.0182967328789 612.2817238576251 765.3467238576251 611.6097032671212 765.347 610.7810000000001 C 765.347 609.9525728752538 766.0185728752538 609.2810000000001 766.847 609.2810000000001 C 767.6754271247462 609.2810000000001 768.347 609.9525728752538 768.347 610.7810000000001 z M 787.315 610.782 C 787.315 611.6104271247463 786.6434271247463 612.282 785.815 612.282 C 784.9865728752538 612.282 784.315 611.6104271247463 784.315 610.782 C 784.315 609.9535728752538 784.9865728752538 609.282 785.815 609.282 C 786.6434271247463 609.282 787.315 609.9535728752538 787.315 610.782 z M 806.283 610.782 C 806.283 611.6104271247463 805.6114271247462 612.282 804.783 612.282 C 803.9545728752538 612.282 803.283 611.6104271247463 803.283 610.782 C 803.283 609.9535728752538 803.9545728752538 609.282 804.783 609.282 C 805.6114271247462 609.282 806.283 609.9535728752538 806.283 610.782 z M 825.252 610.782 C 825.251723857625 611.6107032671212 824.5797032671211 612.2822761423749 823.751 612.282 C 822.9222967328789 612.2817238576251 822.2507238576251 611.6097032671212 822.251 610.7810000000001 C 822.251 609.952296732879 822.9227967328789 609.2805000000001 823.7515 609.2805000000001 C 824.5802032671211 609.2805000000001 825.252 609.952296732879 825.252 610.7810000000001 z M 844.22 610.782 C 844.2197238576251 611.6107032671212 843.5477032671212 612.2822761423749 842.719 612.282 C 841.8902967328789 612.2817238576251 841.2187238576252 611.6097032671212 841.219 610.7810000000001 C 841.219 609.9525728752538 841.8905728752538 609.2810000000001 842.719 609.2810000000001 C 843.5474271247463 609.2810000000001 844.219 609.9525728752538 844.219 610.7810000000001 z M 863.188 610.782 C 863.1877238576251 611.610979409496 862.515479409496 612.2827761423749 861.6865 612.2825 C 860.857520590504 612.2822238576251 860.1857238576251 611.6099794094961 860.186 610.7810000000001 C 860.186 609.952296732879 860.8577967328789 609.2805000000001 861.6865 609.2805000000001 C 862.5152032671211 609.2805000000001 863.187 609.952296732879 863.187 610.7810000000001 z M 882.155 610.782 C 882.1547238576251 611.6104271247463 881.4829271247462 612.281776142375 880.6545 612.2815 C 879.8260728752538 612.2812238576252 879.1547238576251 611.6094271247463 879.155 610.7810000000001 C 879.155 609.9525728752538 879.8265728752538 609.2810000000001 880.655 609.2810000000001 C 881.4834271247462 609.2810000000001 882.155 609.9525728752538 882.155 610.7810000000001 z M 901.123 610.782 C 901.1227238576251 611.6107032671212 900.4507032671212 612.2822761423749 899.6220000000001 612.282 C 898.793296732879 612.2817238576251 898.1217238576252 611.6097032671212 898.1220000000001 610.7810000000001 C 898.1220000000001 609.952296732879 898.793796732879 609.2805000000001 899.6225000000001 609.2805000000001 C 900.4512032671212 609.2805000000001 901.123 609.952296732879 901.123 610.7810000000001 z" stroke-linecap="round" />
</g>
		<g transform="matrix(1 0 0 1 422.82 -61.57)" id="avatar-shapes"  >
<path style="stroke: rgb(72,49,212); stroke-width: 2; stroke-dasharray: none; stroke-linecap: butt; stroke-dashoffset: 0; stroke-linejoin: miter; stroke-miterlimit: 50; fill: none; fill-rule: nonzero; opacity: 1;" vector-effect="non-scaling-stroke"  transform=" translate(-890.32, -288.93)" d="M 846.646 332.048 L 846.646 332.048 L 868.904 332.61 L 868.904 332.61 L 868.344 310.35 L 868.344 310.35 L 890.6020000000001 310.91 L 890.6020000000001 310.91 L 890.0420000000001 288.65200000000004 L 890.0420000000001 288.65200000000004 L 912.3010000000002 289.21200000000005 L 912.3010000000002 289.21200000000005 L 911.7410000000002 266.95500000000004 L 911.7410000000002 266.95500000000004 L 934.0010000000002 267.51400000000007 L 934.0010000000002 267.51400000000007 L 933.4410000000003 245.25400000000008 L 933.4410000000003 245.25400000000008" stroke-linecap="round" />
</g>
		<g transform="matrix(1 0 0 1 -422.27 234.88)" id="avatar-shapes"  >
<path style="stroke: rgb(204,243,129); stroke-width: 2; stroke-dasharray: none; stroke-linecap: butt; stroke-dashoffset: 0; stroke-linejoin: miter; stroke-miterlimit: 50; fill: none; fill-rule: nonzero; opacity: 1;" vector-effect="non-scaling-stroke"  transform=" translate(-45.23, -585.38)" d="M 2.114 541.705 L 2.114 541.705 L 1.5539999999999998 563.9630000000001 L 1.5539999999999998 563.9630000000001 L 23.811999999999998 563.402 L 23.811999999999998 563.402 L 23.252 585.6610000000001 L 23.252 585.6610000000001 L 45.51 585.1010000000001 L 45.51 585.1010000000001 L 44.949999999999996 607.3590000000002 L 44.949999999999996 607.3590000000002 L 67.208 606.7990000000002 L 67.208 606.7990000000002 L 66.649 629.0590000000002 L 66.649 629.0590000000002 L 88.909 628.4990000000003 L 88.909 628.4990000000003" stroke-linecap="round" />
</g>
</g>
</g>
</svg>